<?xml version="1.0" encoding="UTF-8" standalone="no"?>
<!-- Created with Inkscape (http://www.inkscape.org/) -->

<svg
   xmlns:dc="http://purl.org/dc/elements/1.1/"
   xmlns:cc="http://creativecommons.org/ns#"
   xmlns:rdf="http://www.w3.org/1999/02/22-rdf-syntax-ns#"
   xmlns:svg="http://www.w3.org/2000/svg"
   xmlns="http://www.w3.org/2000/svg"
   xmlns:sodipodi="http://sodipodi.sourceforge.net/DTD/sodipodi-0.dtd"
   xmlns:inkscape="http://www.inkscape.org/namespaces/inkscape"
   version="1.1"
   id="svg2"
   xml:space="preserve"
   width="390"
   height="520"
   viewBox="0 0 390 520"
   sodipodi:docname="mxcfb_camera_calibration.svg"
   inkscape:version="0.92.4 5da689c313, 2019-01-14"
   inkscape:export-filename="/home/andreas/source/inktty/tools/data/mxcfb_camera_calibration.png"
   inkscape:export-xdpi="265.85001"
   inkscape:export-ydpi="265.85001"><metadata
     id="metadata8"><rdf:RDF><cc:Work
         rdf:about=""><dc:format>image/svg+xml</dc:format><dc:type
           rdf:resource="http://purl.org/dc/dcmitype/StillImage" /><dc:title></dc:title></cc:Work></rdf:RDF></metadata><defs
     id="defs6" /><sodipodi:namedview
     pagecolor="#ffffff"
     bordercolor="#666666"
     borderopacity="1"
     objecttolerance="10"
     gridtolerance="10"
     guidetolerance="10"
     inkscape:pageopacity="1"
     inkscape:pageshadow="2"
     inkscape:window-width="3840"
     inkscape:window-height="2085"
     id="namedview4"
     showgrid="false"
     showguides="false"
     inkscape:zoom="2.5782781"
     inkscape:cx="106.05377"
     inkscape:cy="235.48094"
     inkscape:window-x="0"
     inkscape:window-y="38"
     inkscape:window-maximized="1"
     inkscape:current-layer="g16" /><g
     id="g10"
     inkscape:groupmode="layer"
     inkscape:label="calib.io_charuco_103x137_11x8_10_DICT_4X4"
     transform="matrix(1.3333333,0,0,-1.3333333,0,519.99999)"><g
       id="g12"
       transform="matrix(2.83464,0,0,-2.83464,0,404.94903)"><g
         id="g14"><g
           id="g16"><g
             id="g1638"
             transform="translate(0,5.5655013)"><g
               id="g18"><g
                 id="g20"><path
                   inkscape:connector-curvature="0"
                   id="path22"
                   style="fill:#000000;fill-opacity:1;fill-rule:nonzero;stroke:none"
                   d="m 11.5,13.5 h 10 c 0,0 0,0 0,0 v 10 c 0,0 0,0 0,0 h -10 c 0,0 0,0 0,0 v -10 c 0,0 0,0 0,0 z" /></g></g><g
               id="g24"><g
                 id="g26"><path
                   inkscape:connector-curvature="0"
                   id="path28"
                   style="fill:#000000;fill-opacity:1;fill-rule:nonzero;stroke:none"
                   d="m 22.75,14.75 h 7.5 c 0,0 0,0 0,0 v 7.5 c 0,0 0,0 0,0 h -7.5 c 0,0 0,0 0,0 v -7.5 c 0,0 0,0 0,0 z" /></g></g><g
               id="g30"><g
                 id="g32"><path
                   inkscape:connector-curvature="0"
                   id="path34"
                   style="fill:#ffffff;fill-opacity:1;fill-rule:nonzero;stroke:none"
                   d="m 24,16 h 1.25 v 1.25 H 24 Z m 2.5,0 h 1.25 v 1.25 H 26.5 Z m 1.25,0 H 29 v 1.25 h -1.25 z m -2.5,1.25 h 1.25 v 1.25 h -1.25 z m 2.5,0 H 29 V 18.5 H 27.75 Z M 26.5,18.5 h 1.25 v 1.25 H 26.5 Z m 1.25,0 H 29 v 1.25 h -1.25 z m -1.25,1.25 h 1.25 V 21 H 26.5 Z" /></g></g><g
               id="g36"><g
                 id="g38"><path
                   inkscape:connector-curvature="0"
                   id="path40"
                   style="fill:#000000;fill-opacity:1;fill-rule:nonzero;stroke:none"
                   d="m 31.5,13.5 h 10 c 0,0 0,0 0,0 v 10 c 0,0 0,0 0,0 h -10 c 0,0 0,0 0,0 v -10 c 0,0 0,0 0,0 z" /></g></g><g
               id="g42"><g
                 id="g44"><path
                   inkscape:connector-curvature="0"
                   id="path46"
                   style="fill:#000000;fill-opacity:1;fill-rule:nonzero;stroke:none"
                   d="m 42.75,14.75 h 7.5 c 0,0 0,0 0,0 v 7.5 c 0,0 0,0 0,0 h -7.5 c 0,0 0,0 0,0 v -7.5 c 0,0 0,0 0,0 z" /></g></g><g
               id="g48"><g
                 id="g50"><path
                   inkscape:connector-curvature="0"
                   id="path52"
                   style="fill:#ffffff;fill-opacity:1;fill-rule:nonzero;stroke:none"
                   d="m 44,17.25 h 1.25 V 18.5 H 44 Z m 1.25,0 h 1.25 v 1.25 h -1.25 z m 1.25,0 h 1.25 V 18.5 H 46.5 Z m 1.25,0 H 49 V 18.5 H 47.75 Z M 44,18.5 h 1.25 v 1.25 H 44 Z m 3.75,0 H 49 v 1.25 H 47.75 Z M 44,19.75 h 1.25 V 21 H 44 Z m 2.5,0 h 1.25 V 21 H 46.5 Z" /></g></g><g
               id="g54"><g
                 id="g56"><path
                   inkscape:connector-curvature="0"
                   id="path58"
                   style="fill:#000000;fill-opacity:1;fill-rule:nonzero;stroke:none"
                   d="m 51.5,13.5 h 10 c 0,0 0,0 0,0 v 10 c 0,0 0,0 0,0 h -10 c 0,0 0,0 0,0 v -10 c 0,0 0,0 0,0 z" /></g></g><g
               id="g60"><g
                 id="g62"><path
                   inkscape:connector-curvature="0"
                   id="path64"
                   style="fill:#000000;fill-opacity:1;fill-rule:nonzero;stroke:none"
                   d="m 62.75,14.75 h 7.5 c 0,0 0,0 0,0 v 7.5 c 0,0 0,0 0,0 h -7.5 c 0,0 0,0 0,0 v -7.5 c 0,0 0,0 0,0 z" /></g></g><g
               id="g66"><g
                 id="g68"><path
                   inkscape:connector-curvature="0"
                   id="path70"
                   style="fill:#ffffff;fill-opacity:1;fill-rule:nonzero;stroke:none"
                   d="m 66.5,16 h 1.25 v 1.25 H 66.5 Z m 1.25,0 H 69 v 1.25 h -1.25 z m -1.25,1.25 h 1.25 V 18.5 H 66.5 Z m 1.25,0 H 69 V 18.5 H 67.75 Z M 66.5,18.5 h 1.25 v 1.25 H 66.5 Z M 64,19.75 h 1.25 V 21 H 64 Z m 1.25,0 H 66.5 V 21 h -1.25 z m 2.5,0 H 69 V 21 h -1.25 z" /></g></g><g
               id="g72"><g
                 id="g74"><path
                   inkscape:connector-curvature="0"
                   id="path76"
                   style="fill:#000000;fill-opacity:1;fill-rule:nonzero;stroke:none"
                   d="m 71.5,13.5 h 10 c 0,0 0,0 0,0 v 10 c 0,0 0,0 0,0 h -10 c 0,0 0,0 0,0 v -10 c 0,0 0,0 0,0 z" /></g></g><g
               id="g78"><g
                 id="g80"><path
                   inkscape:connector-curvature="0"
                   id="path82"
                   style="fill:#000000;fill-opacity:1;fill-rule:nonzero;stroke:none"
                   d="m 82.75,14.75 h 7.5 c 0,0 0,0 0,0 v 7.5 c 0,0 0,0 0,0 h -7.5 c 0,0 0,0 0,0 v -7.5 c 0,0 0,0 0,0 z" /></g></g><g
               id="g84"><g
                 id="g86"><path
                   inkscape:connector-curvature="0"
                   id="path88"
                   style="fill:#ffffff;fill-opacity:1;fill-rule:nonzero;stroke:none"
                   d="m 84,16 h 1.25 v 1.25 H 84 Z m 3.75,0 H 89 v 1.25 H 87.75 Z M 84,17.25 h 1.25 V 18.5 H 84 Z m 3.75,0 H 89 v 1.25 h -1.25 z m -2.5,1.25 h 1.25 v 1.25 h -1.25 z m 0,1.25 H 86.5 V 21 h -1.25 z m 1.25,0 h 1.25 V 21 H 86.5 Z" /></g></g><g
               id="g90"><g
                 id="g92"><path
                   inkscape:connector-curvature="0"
                   id="path94"
                   style="fill:#000000;fill-opacity:1;fill-rule:nonzero;stroke:none"
                   d="m 12.75,24.75 h 7.5 c 0,0 0,0 0,0 v 7.5 c 0,0 0,0 0,0 h -7.5 c 0,0 0,0 0,0 v -7.5 c 0,0 0,0 0,0 z" /></g></g><g
               id="g96"><g
                 id="g98"><path
                   inkscape:connector-curvature="0"
                   id="path100"
                   style="fill:#ffffff;fill-opacity:1;fill-rule:nonzero;stroke:none"
                   d="m 15.25,26 h 1.25 v 1.25 h -1.25 z m 2.5,0 H 19 v 1.25 h -1.25 z m -2.5,1.25 H 16.5 V 28.5 H 15.25 Z M 14,28.5 h 1.25 v 1.25 H 14 Z m 3.75,0 H 19 v 1.25 H 17.75 Z M 14,29.75 h 1.25 V 31 H 14 Z m 1.25,0 H 16.5 V 31 h -1.25 z m 1.25,0 h 1.25 V 31 H 16.5 Z" /></g></g><g
               id="g102"><g
                 id="g104"><path
                   inkscape:connector-curvature="0"
                   id="path106"
                   style="fill:#000000;fill-opacity:1;fill-rule:nonzero;stroke:none"
                   d="m 21.5,23.5 h 10 c 0,0 0,0 0,0 v 10 c 0,0 0,0 0,0 h -10 c 0,0 0,0 0,0 v -10 c 0,0 0,0 0,0 z" /></g></g><g
               id="g108"><g
                 id="g110"><path
                   inkscape:connector-curvature="0"
                   id="path112"
                   style="fill:#000000;fill-opacity:1;fill-rule:nonzero;stroke:none"
                   d="m 32.75,24.75 h 7.5 c 0,0 0,0 0,0 v 7.5 c 0,0 0,0 0,0 h -7.5 c 0,0 0,0 0,0 v -7.5 c 0,0 0,0 0,0 z" /></g></g><g
               id="g114"><g
                 id="g116"><path
                   inkscape:connector-curvature="0"
                   id="path118"
                   style="fill:#ffffff;fill-opacity:1;fill-rule:nonzero;stroke:none"
                   d="m 35.25,26 h 1.25 v 1.25 h -1.25 z m 1.25,0 h 1.25 v 1.25 H 36.5 Z m 1.25,0 H 39 v 1.25 H 37.75 Z M 34,27.25 h 1.25 V 28.5 H 34 Z m 3.75,0 H 39 V 28.5 H 37.75 Z M 34,28.5 h 1.25 v 1.25 H 34 Z m 1.25,0 h 1.25 v 1.25 H 35.25 Z M 34,29.75 h 1.25 V 31 H 34 Z m 1.25,0 H 36.5 V 31 h -1.25 z m 2.5,0 H 39 V 31 h -1.25 z" /></g></g><g
               id="g120"><g
                 id="g122"><path
                   inkscape:connector-curvature="0"
                   id="path124"
                   style="fill:#000000;fill-opacity:1;fill-rule:nonzero;stroke:none"
                   d="m 41.5,23.5 h 10 c 0,0 0,0 0,0 v 10 c 0,0 0,0 0,0 h -10 c 0,0 0,0 0,0 v -10 c 0,0 0,0 0,0 z" /></g></g><g
               id="g126"><g
                 id="g128"><path
                   inkscape:connector-curvature="0"
                   id="path130"
                   style="fill:#000000;fill-opacity:1;fill-rule:nonzero;stroke:none"
                   d="m 52.75,24.75 h 7.5 c 0,0 0,0 0,0 v 7.5 c 0,0 0,0 0,0 h -7.5 c 0,0 0,0 0,0 v -7.5 c 0,0 0,0 0,0 z" /></g></g><g
               id="g132"><g
                 id="g134"><path
                   inkscape:connector-curvature="0"
                   id="path136"
                   style="fill:#ffffff;fill-opacity:1;fill-rule:nonzero;stroke:none"
                   d="m 54,26 h 1.25 v 1.25 H 54 Z m 3.75,0 H 59 v 1.25 H 57.75 Z M 54,27.25 h 1.25 V 28.5 H 54 Z m 1.25,0 h 1.25 v 1.25 h -1.25 z m 1.25,0 h 1.25 V 28.5 H 56.5 Z m 0,1.25 h 1.25 v 1.25 H 56.5 Z M 54,29.75 h 1.25 V 31 H 54 Z m 1.25,0 H 56.5 V 31 h -1.25 z m 1.25,0 h 1.25 V 31 H 56.5 Z" /></g></g><g
               id="g138"><g
                 id="g140"><path
                   inkscape:connector-curvature="0"
                   id="path142"
                   style="fill:#000000;fill-opacity:1;fill-rule:nonzero;stroke:none"
                   d="m 61.5,23.5 h 10 c 0,0 0,0 0,0 v 10 c 0,0 0,0 0,0 h -10 c 0,0 0,0 0,0 v -10 c 0,0 0,0 0,0 z" /></g></g><g
               id="g144"><g
                 id="g146"><path
                   inkscape:connector-curvature="0"
                   id="path148"
                   style="fill:#000000;fill-opacity:1;fill-rule:nonzero;stroke:none"
                   d="m 72.75,24.75 h 7.5 c 0,0 0,0 0,0 v 7.5 c 0,0 0,0 0,0 h -7.5 c 0,0 0,0 0,0 v -7.5 c 0,0 0,0 0,0 z" /></g></g><g
               id="g150"><g
                 id="g152"><path
                   inkscape:connector-curvature="0"
                   id="path154"
                   style="fill:#ffffff;fill-opacity:1;fill-rule:nonzero;stroke:none"
                   d="m 74,26 h 1.25 v 1.25 H 74 Z m 1.25,0 h 1.25 v 1.25 h -1.25 z m 0,1.25 H 76.5 V 28.5 H 75.25 Z M 74,28.5 h 1.25 v 1.25 H 74 Z m 1.25,0 h 1.25 v 1.25 h -1.25 z m 1.25,0 h 1.25 v 1.25 H 76.5 Z m 1.25,0 H 79 v 1.25 h -1.25 z m -1.25,1.25 h 1.25 V 31 H 76.5 Z" /></g></g><g
               id="g156"><g
                 id="g158"><path
                   inkscape:connector-curvature="0"
                   id="path160"
                   style="fill:#000000;fill-opacity:1;fill-rule:nonzero;stroke:none"
                   d="m 81.5,23.5 h 10 c 0,0 0,0 0,0 v 10 c 0,0 0,0 0,0 h -10 c 0,0 0,0 0,0 v -10 c 0,0 0,0 0,0 z" /></g></g><g
               id="g162"><g
                 id="g164"><path
                   inkscape:connector-curvature="0"
                   id="path166"
                   style="fill:#000000;fill-opacity:1;fill-rule:nonzero;stroke:none"
                   d="m 11.5,33.5 h 10 c 0,0 0,0 0,0 v 10 c 0,0 0,0 0,0 h -10 c 0,0 0,0 0,0 v -10 c 0,0 0,0 0,0 z" /></g></g><g
               id="g168"><g
                 id="g170"><path
                   inkscape:connector-curvature="0"
                   id="path172"
                   style="fill:#000000;fill-opacity:1;fill-rule:nonzero;stroke:none"
                   d="m 22.75,34.75 h 7.5 c 0,0 0,0 0,0 v 7.5 c 0,0 0,0 0,0 h -7.5 c 0,0 0,0 0,0 v -7.5 c 0,0 0,0 0,0 z" /></g></g><g
               id="g174"><g
                 id="g176"><path
                   inkscape:connector-curvature="0"
                   id="path178"
                   style="fill:#ffffff;fill-opacity:1;fill-rule:nonzero;stroke:none"
                   d="m 24,36 h 1.25 v 1.25 H 24 Z m 1.25,0 h 1.25 v 1.25 h -1.25 z m 1.25,0 h 1.25 v 1.25 H 26.5 Z m 1.25,0 H 29 v 1.25 H 27.75 Z M 24,37.25 h 1.25 V 38.5 H 24 Z m 1.25,0 h 1.25 v 1.25 h -1.25 z m 1.25,0 h 1.25 V 38.5 H 26.5 Z M 24,38.5 h 1.25 v 1.25 H 24 Z m 1.25,0 h 1.25 v 1.25 h -1.25 z m 2.5,0 H 29 v 1.25 H 27.75 Z M 24,39.75 h 1.25 V 41 H 24 Z m 2.5,0 h 1.25 V 41 H 26.5 Z" /></g></g><g
               id="g180"><g
                 id="g182"><path
                   inkscape:connector-curvature="0"
                   id="path184"
                   style="fill:#000000;fill-opacity:1;fill-rule:nonzero;stroke:none"
                   d="m 31.5,33.5 h 10 c 0,0 0,0 0,0 v 10 c 0,0 0,0 0,0 h -10 c 0,0 0,0 0,0 v -10 c 0,0 0,0 0,0 z" /></g></g><g
               id="g186"><g
                 id="g188"><path
                   inkscape:connector-curvature="0"
                   id="path190"
                   style="fill:#000000;fill-opacity:1;fill-rule:nonzero;stroke:none"
                   d="m 42.75,34.75 h 7.5 c 0,0 0,0 0,0 v 7.5 c 0,0 0,0 0,0 h -7.5 c 0,0 0,0 0,0 v -7.5 c 0,0 0,0 0,0 z" /></g></g><g
               id="g192"><g
                 id="g194"><path
                   inkscape:connector-curvature="0"
                   id="path196"
                   style="fill:#ffffff;fill-opacity:1;fill-rule:nonzero;stroke:none"
                   d="m 44,36 h 1.25 v 1.25 H 44 Z m 1.25,0 h 1.25 v 1.25 H 45.25 Z M 44,37.25 h 1.25 V 38.5 H 44 Z m 1.25,0 h 1.25 v 1.25 h -1.25 z m 1.25,0 h 1.25 V 38.5 H 46.5 Z m 1.25,0 H 49 v 1.25 h -1.25 z m -2.5,1.25 h 1.25 v 1.25 h -1.25 z m 2.5,0 H 49 v 1.25 h -1.25 z m -2.5,1.25 H 46.5 V 41 h -1.25 z m 1.25,0 h 1.25 V 41 H 46.5 Z" /></g></g><g
               id="g198"><g
                 id="g200"><path
                   inkscape:connector-curvature="0"
                   id="path202"
                   style="fill:#000000;fill-opacity:1;fill-rule:nonzero;stroke:none"
                   d="m 51.5,33.5 h 10 c 0,0 0,0 0,0 v 10 c 0,0 0,0 0,0 h -10 c 0,0 0,0 0,0 v -10 c 0,0 0,0 0,0 z" /></g></g><g
               id="g204"><g
                 id="g206"><path
                   inkscape:connector-curvature="0"
                   id="path208"
                   style="fill:#000000;fill-opacity:1;fill-rule:nonzero;stroke:none"
                   d="m 62.75,34.75 h 7.5 c 0,0 0,0 0,0 v 7.5 c 0,0 0,0 0,0 h -7.5 c 0,0 0,0 0,0 v -7.5 c 0,0 0,0 0,0 z" /></g></g><g
               id="g210"><g
                 id="g212"><path
                   inkscape:connector-curvature="0"
                   id="path214"
                   style="fill:#ffffff;fill-opacity:1;fill-rule:nonzero;stroke:none"
                   d="m 64,36 h 1.25 v 1.25 H 64 Z m 1.25,0 h 1.25 v 1.25 h -1.25 z m 1.25,0 h 1.25 v 1.25 H 66.5 Z m 1.25,0 H 69 v 1.25 H 67.75 Z M 64,37.25 h 1.25 V 38.5 H 64 Z m 3.75,0 H 69 V 38.5 H 67.75 Z M 64,38.5 h 1.25 v 1.25 H 64 Z m 3.75,0 H 69 v 1.25 h -1.25 z m 0,1.25 H 69 V 41 h -1.25 z" /></g></g><g
               id="g216"><g
                 id="g218"><path
                   inkscape:connector-curvature="0"
                   id="path220"
                   style="fill:#000000;fill-opacity:1;fill-rule:nonzero;stroke:none"
                   d="m 71.5,33.5 h 10 c 0,0 0,0 0,0 v 10 c 0,0 0,0 0,0 h -10 c 0,0 0,0 0,0 v -10 c 0,0 0,0 0,0 z" /></g></g><g
               id="g222"><g
                 id="g224"><path
                   inkscape:connector-curvature="0"
                   id="path226"
                   style="fill:#000000;fill-opacity:1;fill-rule:nonzero;stroke:none"
                   d="m 82.75,34.75 h 7.5 c 0,0 0,0 0,0 v 7.5 c 0,0 0,0 0,0 h -7.5 c 0,0 0,0 0,0 v -7.5 c 0,0 0,0 0,0 z" /></g></g><g
               id="g228"><g
                 id="g230"><path
                   inkscape:connector-curvature="0"
                   id="path232"
                   style="fill:#ffffff;fill-opacity:1;fill-rule:nonzero;stroke:none"
                   d="M 87.75,36 H 89 v 1.25 h -1.25 z m 0,1.25 H 89 V 38.5 H 87.75 Z M 84,38.5 h 1.25 v 1.25 H 84 Z m 2.5,0 h 1.25 v 1.25 H 86.5 Z m -1.25,1.25 H 86.5 V 41 h -1.25 z m 1.25,0 h 1.25 V 41 H 86.5 Z m 1.25,0 H 89 V 41 h -1.25 z" /></g></g><g
               id="g234"><g
                 id="g236"><path
                   inkscape:connector-curvature="0"
                   id="path238"
                   style="fill:#000000;fill-opacity:1;fill-rule:nonzero;stroke:none"
                   d="m 12.75,44.75 h 7.5 c 0,0 0,0 0,0 v 7.5 c 0,0 0,0 0,0 h -7.5 c 0,0 0,0 0,0 v -7.5 c 0,0 0,0 0,0 z" /></g></g><g
               id="g240"><g
                 id="g242"><path
                   inkscape:connector-curvature="0"
                   id="path244"
                   style="fill:#ffffff;fill-opacity:1;fill-rule:nonzero;stroke:none"
                   d="m 14,47.25 h 1.25 V 48.5 H 14 Z m 1.25,0 h 1.25 v 1.25 h -1.25 z m 1.25,0 h 1.25 V 48.5 H 16.5 Z M 14,48.5 h 1.25 v 1.25 H 14 Z m 2.5,0 h 1.25 v 1.25 H 16.5 Z m 1.25,0 H 19 v 1.25 h -1.25 z m -2.5,1.25 H 16.5 V 51 h -1.25 z m 1.25,0 h 1.25 V 51 H 16.5 Z m 1.25,0 H 19 V 51 h -1.25 z" /></g></g><g
               id="g246"><g
                 id="g248"><path
                   inkscape:connector-curvature="0"
                   id="path250"
                   style="fill:#000000;fill-opacity:1;fill-rule:nonzero;stroke:none"
                   d="m 21.5,43.5 h 10 c 0,0 0,0 0,0 v 10 c 0,0 0,0 0,0 h -10 c 0,0 0,0 0,0 v -10 c 0,0 0,0 0,0 z" /></g></g><g
               id="g252"><g
                 id="g254"><path
                   inkscape:connector-curvature="0"
                   id="path256"
                   style="fill:#000000;fill-opacity:1;fill-rule:nonzero;stroke:none"
                   d="m 32.75,44.75 h 7.5 c 0,0 0,0 0,0 v 7.5 c 0,0 0,0 0,0 h -7.5 c 0,0 0,0 0,0 v -7.5 c 0,0 0,0 0,0 z" /></g></g><g
               id="g258"><g
                 id="g260"><path
                   inkscape:connector-curvature="0"
                   id="path262"
                   style="fill:#ffffff;fill-opacity:1;fill-rule:nonzero;stroke:none"
                   d="m 36.5,46 h 1.25 v 1.25 H 36.5 Z M 34,47.25 h 1.25 V 48.5 H 34 Z m 2.5,0 h 1.25 V 48.5 H 36.5 Z m -2.5,2.5 h 1.25 V 51 H 34 Z m 1.25,0 H 36.5 V 51 h -1.25 z m 1.25,0 h 1.25 V 51 H 36.5 Z m 1.25,0 H 39 V 51 h -1.25 z" /></g></g><g
               id="g264"><g
                 id="g266"><path
                   inkscape:connector-curvature="0"
                   id="path268"
                   style="fill:#000000;fill-opacity:1;fill-rule:nonzero;stroke:none"
                   d="m 41.5,43.5 h 10 c 0,0 0,0 0,0 v 10 c 0,0 0,0 0,0 h -10 c 0,0 0,0 0,0 v -10 c 0,0 0,0 0,0 z" /></g></g><g
               id="g270"><g
                 id="g272"><path
                   inkscape:connector-curvature="0"
                   id="path274"
                   style="fill:#000000;fill-opacity:1;fill-rule:nonzero;stroke:none"
                   d="m 52.75,44.75 h 7.5 c 0,0 0,0 0,0 v 7.5 c 0,0 0,0 0,0 h -7.5 c 0,0 0,0 0,0 v -7.5 c 0,0 0,0 0,0 z" /></g></g><g
               id="g276"><g
                 id="g278"><path
                   inkscape:connector-curvature="0"
                   id="path280"
                   style="fill:#ffffff;fill-opacity:1;fill-rule:nonzero;stroke:none"
                   d="m 56.5,46 h 1.25 v 1.25 H 56.5 Z m -1.25,1.25 H 56.5 V 48.5 H 55.25 Z M 54,48.5 h 1.25 v 1.25 H 54 Z m 2.5,0 h 1.25 v 1.25 H 56.5 Z m 1.25,0 H 59 v 1.25 h -1.25 z m 0,1.25 H 59 V 51 h -1.25 z" /></g></g><g
               id="g282"><g
                 id="g284"><path
                   inkscape:connector-curvature="0"
                   id="path286"
                   style="fill:#000000;fill-opacity:1;fill-rule:nonzero;stroke:none"
                   d="m 61.5,43.5 h 10 c 0,0 0,0 0,0 v 10 c 0,0 0,0 0,0 h -10 c 0,0 0,0 0,0 v -10 c 0,0 0,0 0,0 z" /></g></g><g
               id="g288"><g
                 id="g290"><path
                   inkscape:connector-curvature="0"
                   id="path292"
                   style="fill:#000000;fill-opacity:1;fill-rule:nonzero;stroke:none"
                   d="m 72.75,44.75 h 7.5 c 0,0 0,0 0,0 v 7.5 c 0,0 0,0 0,0 h -7.5 c 0,0 0,0 0,0 v -7.5 c 0,0 0,0 0,0 z" /></g></g><g
               id="g294"><g
                 id="g296"><path
                   inkscape:connector-curvature="0"
                   id="path298"
                   style="fill:#ffffff;fill-opacity:1;fill-rule:nonzero;stroke:none"
                   d="m 76.5,46 h 1.25 v 1.25 H 76.5 Z m -1.25,1.25 h 1.25 v 1.25 h -1.25 z m 1.25,0 h 1.25 V 48.5 H 76.5 Z m 0,1.25 h 1.25 v 1.25 H 76.5 Z m 1.25,0 H 79 v 1.25 H 77.75 Z M 74,49.75 h 1.25 V 51 H 74 Z m 1.25,0 H 76.5 V 51 h -1.25 z m 1.25,0 h 1.25 V 51 H 76.5 Z" /></g></g><g
               id="g300"><g
                 id="g302"><path
                   inkscape:connector-curvature="0"
                   id="path304"
                   style="fill:#000000;fill-opacity:1;fill-rule:nonzero;stroke:none"
                   d="m 81.5,43.5 h 10 c 0,0 0,0 0,0 v 10 c 0,0 0,0 0,0 h -10 c 0,0 0,0 0,0 v -10 c 0,0 0,0 0,0 z" /></g></g><g
               id="g306"><g
                 id="g308"><path
                   inkscape:connector-curvature="0"
                   id="path310"
                   style="fill:#000000;fill-opacity:1;fill-rule:nonzero;stroke:none"
                   d="m 11.5,53.5 h 10 c 0,0 0,0 0,0 v 10 c 0,0 0,0 0,0 h -10 c 0,0 0,0 0,0 v -10 c 0,0 0,0 0,0 z" /></g></g><g
               id="g312"><g
                 id="g314"><path
                   inkscape:connector-curvature="0"
                   id="path316"
                   style="fill:#000000;fill-opacity:1;fill-rule:nonzero;stroke:none"
                   d="m 22.75,54.75 h 7.5 c 0,0 0,0 0,0 v 7.5 c 0,0 0,0 0,0 h -7.5 c 0,0 0,0 0,0 v -7.5 c 0,0 0,0 0,0 z" /></g></g><g
               id="g318"><g
                 id="g320"><path
                   inkscape:connector-curvature="0"
                   id="path322"
                   style="fill:#ffffff;fill-opacity:1;fill-rule:nonzero;stroke:none"
                   d="m 25.25,56 h 1.25 v 1.25 h -1.25 z m 0,1.25 h 1.25 v 1.25 h -1.25 z m 1.25,0 h 1.25 V 58.5 H 26.5 Z m -1.25,1.25 h 1.25 v 1.25 h -1.25 z m 1.25,0 h 1.25 v 1.25 H 26.5 Z m -1.25,1.25 H 26.5 V 61 h -1.25 z m 2.5,0 H 29 V 61 h -1.25 z" /></g></g><g
               id="g324"><g
                 id="g326"><path
                   inkscape:connector-curvature="0"
                   id="path328"
                   style="fill:#000000;fill-opacity:1;fill-rule:nonzero;stroke:none"
                   d="m 31.5,53.5 h 10 c 0,0 0,0 0,0 v 10 c 0,0 0,0 0,0 h -10 c 0,0 0,0 0,0 v -10 c 0,0 0,0 0,0 z" /></g></g><g
               id="g330"><g
                 id="g332"><path
                   inkscape:connector-curvature="0"
                   id="path334"
                   style="fill:#000000;fill-opacity:1;fill-rule:nonzero;stroke:none"
                   d="m 42.75,54.75 h 7.5 c 0,0 0,0 0,0 v 7.5 c 0,0 0,0 0,0 h -7.5 c 0,0 0,0 0,0 v -7.5 c 0,0 0,0 0,0 z" /></g></g><g
               id="g336"><g
                 id="g338"><path
                   inkscape:connector-curvature="0"
                   id="path340"
                   style="fill:#ffffff;fill-opacity:1;fill-rule:nonzero;stroke:none"
                   d="m 45.25,56 h 1.25 v 1.25 h -1.25 z m 1.25,0 h 1.25 v 1.25 H 46.5 Z m -1.25,1.25 h 1.25 v 1.25 h -1.25 z m 1.25,0 h 1.25 V 58.5 H 46.5 Z" /></g></g><g
               id="g342"><g
                 id="g344"><path
                   inkscape:connector-curvature="0"
                   id="path346"
                   style="fill:#000000;fill-opacity:1;fill-rule:nonzero;stroke:none"
                   d="m 51.5,53.5 h 10 c 0,0 0,0 0,0 v 10 c 0,0 0,0 0,0 h -10 c 0,0 0,0 0,0 v -10 c 0,0 0,0 0,0 z" /></g></g><g
               id="g348"><g
                 id="g350"><path
                   inkscape:connector-curvature="0"
                   id="path352"
                   style="fill:#000000;fill-opacity:1;fill-rule:nonzero;stroke:none"
                   d="m 62.75,54.75 h 7.5 c 0,0 0,0 0,0 v 7.5 c 0,0 0,0 0,0 h -7.5 c 0,0 0,0 0,0 v -7.5 c 0,0 0,0 0,0 z" /></g></g><g
               id="g354"><g
                 id="g356"><path
                   inkscape:connector-curvature="0"
                   id="path358"
                   style="fill:#ffffff;fill-opacity:1;fill-rule:nonzero;stroke:none"
                   d="m 65.25,56 h 1.25 v 1.25 h -1.25 z m 1.25,0 h 1.25 v 1.25 H 66.5 Z M 64,57.25 h 1.25 V 58.5 H 64 Z m 1.25,0 h 1.25 v 1.25 h -1.25 z m 0,1.25 h 1.25 v 1.25 h -1.25 z m 2.5,0 H 69 v 1.25 H 67.75 Z M 64,59.75 h 1.25 V 61 H 64 Z m 1.25,0 H 66.5 V 61 h -1.25 z m 1.25,0 h 1.25 V 61 H 66.5 Z" /></g></g><g
               id="g360"><g
                 id="g362"><path
                   inkscape:connector-curvature="0"
                   id="path364"
                   style="fill:#000000;fill-opacity:1;fill-rule:nonzero;stroke:none"
                   d="m 71.5,53.5 h 10 c 0,0 0,0 0,0 v 10 c 0,0 0,0 0,0 h -10 c 0,0 0,0 0,0 v -10 c 0,0 0,0 0,0 z" /></g></g><g
               id="g366"><g
                 id="g368"><path
                   inkscape:connector-curvature="0"
                   id="path370"
                   style="fill:#000000;fill-opacity:1;fill-rule:nonzero;stroke:none"
                   d="m 82.75,54.75 h 7.5 c 0,0 0,0 0,0 v 7.5 c 0,0 0,0 0,0 h -7.5 c 0,0 0,0 0,0 v -7.5 c 0,0 0,0 0,0 z" /></g></g><g
               id="g372"><g
                 id="g374"><path
                   inkscape:connector-curvature="0"
                   id="path376"
                   style="fill:#ffffff;fill-opacity:1;fill-rule:nonzero;stroke:none"
                   d="m 85.25,56 h 1.25 v 1.25 h -1.25 z m 1.25,0 h 1.25 v 1.25 H 86.5 Z m 1.25,0 H 89 v 1.25 h -1.25 z m -2.5,1.25 h 1.25 v 1.25 h -1.25 z m 1.25,0 h 1.25 V 58.5 H 86.5 Z M 84,58.5 h 1.25 v 1.25 H 84 Z m 2.5,0 h 1.25 v 1.25 H 86.5 Z M 84,59.75 h 1.25 V 61 H 84 Z m 1.25,0 H 86.5 V 61 h -1.25 z m 1.25,0 h 1.25 V 61 H 86.5 Z m 1.25,0 H 89 V 61 h -1.25 z" /></g></g><g
               id="g378"><g
                 id="g380"><path
                   inkscape:connector-curvature="0"
                   id="path382"
                   style="fill:#000000;fill-opacity:1;fill-rule:nonzero;stroke:none"
                   d="m 12.75,64.75 h 7.5 c 0,0 0,0 0,0 v 7.5 c 0,0 0,0 0,0 h -7.5 c 0,0 0,0 0,0 v -7.5 c 0,0 0,0 0,0 z" /></g></g><g
               id="g384"><g
                 id="g386"><path
                   inkscape:connector-curvature="0"
                   id="path388"
                   style="fill:#ffffff;fill-opacity:1;fill-rule:nonzero;stroke:none"
                   d="m 14,66 h 1.25 v 1.25 H 14 Z m 1.25,1.25 h 1.25 v 1.25 h -1.25 z m 1.25,0 h 1.25 V 68.5 H 16.5 Z M 14,68.5 h 1.25 v 1.25 H 14 Z m 0,1.25 h 1.25 V 71 H 14 Z m 2.5,0 h 1.25 V 71 H 16.5 Z m 1.25,0 H 19 V 71 h -1.25 z" /></g></g><g
               id="g390"><g
                 id="g392"><path
                   inkscape:connector-curvature="0"
                   id="path394"
                   style="fill:#000000;fill-opacity:1;fill-rule:nonzero;stroke:none"
                   d="m 21.5,63.5 h 10 c 0,0 0,0 0,0 v 10 c 0,0 0,0 0,0 h -10 c 0,0 0,0 0,0 v -10 c 0,0 0,0 0,0 z" /></g></g><g
               id="g396"><g
                 id="g398"><path
                   inkscape:connector-curvature="0"
                   id="path400"
                   style="fill:#000000;fill-opacity:1;fill-rule:nonzero;stroke:none"
                   d="m 32.75,64.75 h 7.5 c 0,0 0,0 0,0 v 7.5 c 0,0 0,0 0,0 h -7.5 c 0,0 0,0 0,0 v -7.5 c 0,0 0,0 0,0 z" /></g></g><g
               id="g402"><g
                 id="g404"><path
                   inkscape:connector-curvature="0"
                   id="path406"
                   style="fill:#ffffff;fill-opacity:1;fill-rule:nonzero;stroke:none"
                   d="m 34,66 h 1.25 v 1.25 H 34 Z m 2.5,0 h 1.25 v 1.25 H 36.5 Z m 1.25,0 H 39 v 1.25 h -1.25 z m -1.25,2.5 h 1.25 v 1.25 H 36.5 Z M 34,69.75 h 1.25 V 71 H 34 Z m 2.5,0 h 1.25 V 71 H 36.5 Z m 1.25,0 H 39 V 71 h -1.25 z" /></g></g><g
               id="g408"><g
                 id="g410"><path
                   inkscape:connector-curvature="0"
                   id="path412"
                   style="fill:#000000;fill-opacity:1;fill-rule:nonzero;stroke:none"
                   d="m 41.5,63.5 h 10 c 0,0 0,0 0,0 v 10 c 0,0 0,0 0,0 h -10 c 0,0 0,0 0,0 v -10 c 0,0 0,0 0,0 z" /></g></g><g
               id="g414"><g
                 id="g416"><path
                   inkscape:connector-curvature="0"
                   id="path418"
                   style="fill:#000000;fill-opacity:1;fill-rule:nonzero;stroke:none"
                   d="m 52.75,64.75 h 7.5 c 0,0 0,0 0,0 v 7.5 c 0,0 0,0 0,0 h -7.5 c 0,0 0,0 0,0 v -7.5 c 0,0 0,0 0,0 z" /></g></g><g
               id="g420"><g
                 id="g422"><path
                   inkscape:connector-curvature="0"
                   id="path424"
                   style="fill:#ffffff;fill-opacity:1;fill-rule:nonzero;stroke:none"
                   d="m 54,66 h 1.25 v 1.25 H 54 Z m 1.25,0 h 1.25 v 1.25 H 55.25 Z M 54,67.25 h 1.25 V 68.5 H 54 Z m 1.25,0 H 56.5 V 68.5 H 55.25 Z M 54,68.5 h 1.25 v 1.25 H 54 Z m 1.25,0 h 1.25 v 1.25 h -1.25 z m 2.5,0 H 59 v 1.25 h -1.25 z m -2.5,1.25 H 56.5 V 71 h -1.25 z m 2.5,0 H 59 V 71 h -1.25 z" /></g></g><g
               id="g426"><g
                 id="g428"><path
                   inkscape:connector-curvature="0"
                   id="path430"
                   style="fill:#000000;fill-opacity:1;fill-rule:nonzero;stroke:none"
                   d="m 61.5,63.5 h 10 c 0,0 0,0 0,0 v 10 c 0,0 0,0 0,0 h -10 c 0,0 0,0 0,0 v -10 c 0,0 0,0 0,0 z" /></g></g><g
               id="g432"><g
                 id="g434"><path
                   inkscape:connector-curvature="0"
                   id="path436"
                   style="fill:#000000;fill-opacity:1;fill-rule:nonzero;stroke:none"
                   d="m 72.75,64.75 h 7.5 c 0,0 0,0 0,0 v 7.5 c 0,0 0,0 0,0 h -7.5 c 0,0 0,0 0,0 v -7.5 c 0,0 0,0 0,0 z" /></g></g><g
               id="g438"><g
                 id="g440"><path
                   inkscape:connector-curvature="0"
                   id="path442"
                   style="fill:#ffffff;fill-opacity:1;fill-rule:nonzero;stroke:none"
                   d="m 74,66 h 1.25 v 1.25 H 74 Z m 1.25,0 h 1.25 v 1.25 h -1.25 z m 2.5,0 H 79 v 1.25 H 77.75 Z M 74,67.25 h 1.25 V 68.5 H 74 Z m 1.25,0 h 1.25 v 1.25 h -1.25 z m 2.5,0 H 79 V 68.5 H 77.75 Z M 74,68.5 h 1.25 v 1.25 H 74 Z m 2.5,1.25 h 1.25 V 71 H 76.5 Z" /></g></g><g
               id="g444"><g
                 id="g446"><path
                   inkscape:connector-curvature="0"
                   id="path448"
                   style="fill:#000000;fill-opacity:1;fill-rule:nonzero;stroke:none"
                   d="m 81.5,63.5 h 10 c 0,0 0,0 0,0 v 10 c 0,0 0,0 0,0 h -10 c 0,0 0,0 0,0 v -10 c 0,0 0,0 0,0 z" /></g></g><g
               id="g450"><g
                 id="g452"><path
                   inkscape:connector-curvature="0"
                   id="path454"
                   style="fill:#000000;fill-opacity:1;fill-rule:nonzero;stroke:none"
                   d="m 11.5,73.5 h 10 c 0,0 0,0 0,0 v 10 c 0,0 0,0 0,0 h -10 c 0,0 0,0 0,0 v -10 c 0,0 0,0 0,0 z" /></g></g><g
               id="g456"><g
                 id="g458"><path
                   inkscape:connector-curvature="0"
                   id="path460"
                   style="fill:#000000;fill-opacity:1;fill-rule:nonzero;stroke:none"
                   d="m 22.75,74.75 h 7.5 c 0,0 0,0 0,0 v 7.5 c 0,0 0,0 0,0 h -7.5 c 0,0 0,0 0,0 v -7.5 c 0,0 0,0 0,0 z" /></g></g><g
               id="g462"><g
                 id="g464"><path
                   inkscape:connector-curvature="0"
                   id="path466"
                   style="fill:#ffffff;fill-opacity:1;fill-rule:nonzero;stroke:none"
                   d="m 24,76 h 1.25 v 1.25 H 24 Z m 1.25,0 h 1.25 v 1.25 h -1.25 z m 1.25,0 h 1.25 v 1.25 H 26.5 Z m 1.25,0 H 29 v 1.25 H 27.75 Z M 24,77.25 h 1.25 V 78.5 H 24 Z m 1.25,0 h 1.25 v 1.25 h -1.25 z m 1.25,0 h 1.25 V 78.5 H 26.5 Z m -1.25,1.25 h 1.25 v 1.25 h -1.25 z m 0,1.25 H 26.5 V 81 h -1.25 z m 1.25,0 h 1.25 V 81 H 26.5 Z m 1.25,0 H 29 V 81 h -1.25 z" /></g></g><g
               id="g468"><g
                 id="g470"><path
                   inkscape:connector-curvature="0"
                   id="path472"
                   style="fill:#000000;fill-opacity:1;fill-rule:nonzero;stroke:none"
                   d="m 31.5,73.5 h 10 c 0,0 0,0 0,0 v 10 c 0,0 0,0 0,0 h -10 c 0,0 0,0 0,0 v -10 c 0,0 0,0 0,0 z" /></g></g><g
               id="g474"><g
                 id="g476"><path
                   inkscape:connector-curvature="0"
                   id="path478"
                   style="fill:#000000;fill-opacity:1;fill-rule:nonzero;stroke:none"
                   d="m 42.75,74.75 h 7.5 c 0,0 0,0 0,0 v 7.5 c 0,0 0,0 0,0 h -7.5 c 0,0 0,0 0,0 v -7.5 c 0,0 0,0 0,0 z" /></g></g><g
               id="g480"><g
                 id="g482"><path
                   inkscape:connector-curvature="0"
                   id="path484"
                   style="fill:#ffffff;fill-opacity:1;fill-rule:nonzero;stroke:none"
                   d="m 44,76 h 1.25 v 1.25 H 44 Z m 3.75,0 H 49 v 1.25 h -1.25 z m -2.5,1.25 h 1.25 v 1.25 h -1.25 z m 0,1.25 h 1.25 v 1.25 h -1.25 z m 1.25,0 h 1.25 v 1.25 H 46.5 Z m 1.25,0 H 49 v 1.25 h -1.25 z m 0,1.25 H 49 V 81 h -1.25 z" /></g></g><g
               id="g486"><g
                 id="g488"><path
                   inkscape:connector-curvature="0"
                   id="path490"
                   style="fill:#000000;fill-opacity:1;fill-rule:nonzero;stroke:none"
                   d="m 51.5,73.5 h 10 c 0,0 0,0 0,0 v 10 c 0,0 0,0 0,0 h -10 c 0,0 0,0 0,0 v -10 c 0,0 0,0 0,0 z" /></g></g><g
               id="g492"><g
                 id="g494"><path
                   inkscape:connector-curvature="0"
                   id="path496"
                   style="fill:#000000;fill-opacity:1;fill-rule:nonzero;stroke:none"
                   d="m 62.75,74.75 h 7.5 c 0,0 0,0 0,0 v 7.5 c 0,0 0,0 0,0 h -7.5 c 0,0 0,0 0,0 v -7.5 c 0,0 0,0 0,0 z" /></g></g><g
               id="g498"><g
                 id="g500"><path
                   inkscape:connector-curvature="0"
                   id="path502"
                   style="fill:#ffffff;fill-opacity:1;fill-rule:nonzero;stroke:none"
                   d="m 64,76 h 1.25 v 1.25 H 64 Z m 2.5,0 h 1.25 v 1.25 H 66.5 Z M 64,77.25 h 1.25 V 78.5 H 64 Z m 1.25,0 H 66.5 V 78.5 H 65.25 Z M 64,78.5 h 1.25 v 1.25 H 64 Z m 1.25,0 h 1.25 v 1.25 h -1.25 z m 1.25,0 h 1.25 v 1.25 H 66.5 Z m -1.25,1.25 H 66.5 V 81 h -1.25 z" /></g></g><g
               id="g504"><g
                 id="g506"><path
                   inkscape:connector-curvature="0"
                   id="path508"
                   style="fill:#000000;fill-opacity:1;fill-rule:nonzero;stroke:none"
                   d="m 71.5,73.5 h 10 c 0,0 0,0 0,0 v 10 c 0,0 0,0 0,0 h -10 c 0,0 0,0 0,0 v -10 c 0,0 0,0 0,0 z" /></g></g><g
               id="g510"><g
                 id="g512"><path
                   inkscape:connector-curvature="0"
                   id="path514"
                   style="fill:#000000;fill-opacity:1;fill-rule:nonzero;stroke:none"
                   d="m 82.75,74.75 h 7.5 c 0,0 0,0 0,0 v 7.5 c 0,0 0,0 0,0 h -7.5 c 0,0 0,0 0,0 v -7.5 c 0,0 0,0 0,0 z" /></g></g><g
               id="g516"><g
                 id="g518"><path
                   inkscape:connector-curvature="0"
                   id="path520"
                   style="fill:#ffffff;fill-opacity:1;fill-rule:nonzero;stroke:none"
                   d="m 84,76 h 1.25 v 1.25 H 84 Z m 2.5,0 h 1.25 v 1.25 H 86.5 Z m -1.25,1.25 h 1.25 v 1.25 h -1.25 z m 2.5,0 H 89 v 1.25 h -1.25 z m -2.5,1.25 h 1.25 v 1.25 h -1.25 z m 2.5,0 H 89 v 1.25 h -1.25 z m -2.5,1.25 H 86.5 V 81 h -1.25 z" /></g></g><g
               id="g522"><g
                 id="g524"><path
                   inkscape:connector-curvature="0"
                   id="path526"
                   style="fill:#000000;fill-opacity:1;fill-rule:nonzero;stroke:none"
                   d="m 12.75,84.75 h 7.5 c 0,0 0,0 0,0 v 7.5 c 0,0 0,0 0,0 h -7.5 c 0,0 0,0 0,0 v -7.5 c 0,0 0,0 0,0 z" /></g></g><g
               id="g528"><g
                 id="g530"><path
                   inkscape:connector-curvature="0"
                   id="path532"
                   style="fill:#ffffff;fill-opacity:1;fill-rule:nonzero;stroke:none"
                   d="m 16.5,86 h 1.25 v 1.25 H 16.5 Z m 1.25,1.25 H 19 V 88.5 H 17.75 Z M 16.5,88.5 h 1.25 v 1.25 H 16.5 Z m 0,1.25 h 1.25 V 91 H 16.5 Z m 1.25,0 H 19 V 91 h -1.25 z" /></g></g><g
               id="g534"><g
                 id="g536"><path
                   inkscape:connector-curvature="0"
                   id="path538"
                   style="fill:#000000;fill-opacity:1;fill-rule:nonzero;stroke:none"
                   d="m 21.5,83.5 h 10 c 0,0 0,0 0,0 v 10 c 0,0 0,0 0,0 h -10 c 0,0 0,0 0,0 v -10 c 0,0 0,0 0,0 z" /></g></g><g
               id="g540"><g
                 id="g542"><path
                   inkscape:connector-curvature="0"
                   id="path544"
                   style="fill:#000000;fill-opacity:1;fill-rule:nonzero;stroke:none"
                   d="m 32.75,84.75 h 7.5 c 0,0 0,0 0,0 v 7.5 c 0,0 0,0 0,0 h -7.5 c 0,0 0,0 0,0 v -7.5 c 0,0 0,0 0,0 z" /></g></g><g
               id="g546"><g
                 id="g548"><path
                   inkscape:connector-curvature="0"
                   id="path550"
                   style="fill:#ffffff;fill-opacity:1;fill-rule:nonzero;stroke:none"
                   d="m 36.5,86 h 1.25 v 1.25 H 36.5 Z m 1.25,0 H 39 v 1.25 h -1.25 z m -2.5,1.25 h 1.25 v 1.25 h -1.25 z m 0,1.25 h 1.25 v 1.25 h -1.25 z m 1.25,0 h 1.25 v 1.25 H 36.5 Z M 34,89.75 h 1.25 V 91 H 34 Z m 1.25,0 H 36.5 V 91 h -1.25 z m 1.25,0 h 1.25 V 91 H 36.5 Z m 1.25,0 H 39 V 91 h -1.25 z" /></g></g><g
               id="g552"><g
                 id="g554"><path
                   inkscape:connector-curvature="0"
                   id="path556"
                   style="fill:#000000;fill-opacity:1;fill-rule:nonzero;stroke:none"
                   d="m 41.5,83.5 h 10 c 0,0 0,0 0,0 v 10 c 0,0 0,0 0,0 h -10 c 0,0 0,0 0,0 v -10 c 0,0 0,0 0,0 z" /></g></g><g
               id="g558"><g
                 id="g560"><path
                   inkscape:connector-curvature="0"
                   id="path562"
                   style="fill:#000000;fill-opacity:1;fill-rule:nonzero;stroke:none"
                   d="m 52.75,84.75 h 7.5 c 0,0 0,0 0,0 v 7.5 c 0,0 0,0 0,0 h -7.5 c 0,0 0,0 0,0 v -7.5 c 0,0 0,0 0,0 z" /></g></g><g
               id="g564"><g
                 id="g566"><path
                   inkscape:connector-curvature="0"
                   id="path568"
                   style="fill:#ffffff;fill-opacity:1;fill-rule:nonzero;stroke:none"
                   d="m 55.25,86 h 1.25 v 1.25 h -1.25 z m 0,1.25 h 1.25 v 1.25 h -1.25 z m 2.5,1.25 H 59 v 1.25 h -1.25 z m -2.5,1.25 H 56.5 V 91 h -1.25 z m 2.5,0 H 59 V 91 h -1.25 z" /></g></g><g
               id="g570"><g
                 id="g572"><path
                   inkscape:connector-curvature="0"
                   id="path574"
                   style="fill:#000000;fill-opacity:1;fill-rule:nonzero;stroke:none"
                   d="m 61.5,83.5 h 10 c 0,0 0,0 0,0 v 10 c 0,0 0,0 0,0 h -10 c 0,0 0,0 0,0 v -10 c 0,0 0,0 0,0 z" /></g></g><g
               id="g576"><g
                 id="g578"><path
                   inkscape:connector-curvature="0"
                   id="path580"
                   style="fill:#000000;fill-opacity:1;fill-rule:nonzero;stroke:none"
                   d="m 72.75,84.75 h 7.5 c 0,0 0,0 0,0 v 7.5 c 0,0 0,0 0,0 h -7.5 c 0,0 0,0 0,0 v -7.5 c 0,0 0,0 0,0 z" /></g></g><g
               id="g582"><g
                 id="g584"><path
                   inkscape:connector-curvature="0"
                   id="path586"
                   style="fill:#ffffff;fill-opacity:1;fill-rule:nonzero;stroke:none"
                   d="m 75.25,86 h 1.25 v 1.25 h -1.25 z m 2.5,0 H 79 v 1.25 h -1.25 z m -2.5,1.25 h 1.25 v 1.25 h -1.25 z m 1.25,0 h 1.25 V 88.5 H 76.5 Z m 1.25,0 H 79 V 88.5 H 77.75 Z M 74,88.5 h 1.25 v 1.25 H 74 Z m 2.5,0 h 1.25 v 1.25 H 76.5 Z m 1.25,0 H 79 v 1.25 h -1.25 z m -1.25,1.25 h 1.25 V 91 H 76.5 Z" /></g></g><g
               id="g588"><g
                 id="g590"><path
                   inkscape:connector-curvature="0"
                   id="path592"
                   style="fill:#000000;fill-opacity:1;fill-rule:nonzero;stroke:none"
                   d="m 81.5,83.5 h 10 c 0,0 0,0 0,0 v 10 c 0,0 0,0 0,0 h -10 c 0,0 0,0 0,0 v -10 c 0,0 0,0 0,0 z" /></g></g><g
               id="g594"><g
                 id="g596"><path
                   inkscape:connector-curvature="0"
                   id="path598"
                   style="fill:#000000;fill-opacity:1;fill-rule:nonzero;stroke:none"
                   d="m 11.5,93.5 h 10 c 0,0 0,0 0,0 v 10 c 0,0 0,0 0,0 h -10 c 0,0 0,0 0,0 v -10 c 0,0 0,0 0,0 z" /></g></g><g
               id="g600"><g
                 id="g602"><path
                   inkscape:connector-curvature="0"
                   id="path604"
                   style="fill:#000000;fill-opacity:1;fill-rule:nonzero;stroke:none"
                   d="m 22.75,94.75 h 7.5 c 0,0 0,0 0,0 v 7.5 c 0,0 0,0 0,0 h -7.5 c 0,0 0,0 0,0 v -7.5 c 0,0 0,0 0,0 z" /></g></g><g
               id="g606"><g
                 id="g608"><path
                   inkscape:connector-curvature="0"
                   id="path610"
                   style="fill:#ffffff;fill-opacity:1;fill-rule:nonzero;stroke:none"
                   d="m 24,96 h 1.25 v 1.25 H 24 Z m 3.75,0 H 29 v 1.25 H 27.75 Z M 24,97.25 h 1.25 V 98.5 H 24 Z m 1.25,0 h 1.25 v 1.25 h -1.25 z m 1.25,0 h 1.25 V 98.5 H 26.5 Z M 24,98.5 h 1.25 v 1.25 H 24 Z m 1.25,0 h 1.25 v 1.25 H 25.25 Z M 24,99.75 h 1.25 V 101 H 24 Z m 1.25,0 H 26.5 V 101 h -1.25 z m 1.25,0 h 1.25 V 101 H 26.5 Z m 1.25,0 H 29 V 101 h -1.25 z" /></g></g><g
               id="g612"><g
                 id="g614"><path
                   inkscape:connector-curvature="0"
                   id="path616"
                   style="fill:#000000;fill-opacity:1;fill-rule:nonzero;stroke:none"
                   d="m 31.5,93.5 h 10 c 0,0 0,0 0,0 v 10 c 0,0 0,0 0,0 h -10 c 0,0 0,0 0,0 v -10 c 0,0 0,0 0,0 z" /></g></g><g
               id="g618"><g
                 id="g620"><path
                   inkscape:connector-curvature="0"
                   id="path622"
                   style="fill:#000000;fill-opacity:1;fill-rule:nonzero;stroke:none"
                   d="m 42.75,94.75 h 7.5 c 0,0 0,0 0,0 v 7.5 c 0,0 0,0 0,0 h -7.5 c 0,0 0,0 0,0 v -7.5 c 0,0 0,0 0,0 z" /></g></g><g
               id="g624"><g
                 id="g626"><path
                   inkscape:connector-curvature="0"
                   id="path628"
                   style="fill:#ffffff;fill-opacity:1;fill-rule:nonzero;stroke:none"
                   d="m 44,96 h 1.25 v 1.25 H 44 Z m 1.25,0 h 1.25 v 1.25 h -1.25 z m 1.25,0 h 1.25 v 1.25 H 46.5 Z m 1.25,0 H 49 v 1.25 H 47.75 Z M 44,98.5 h 1.25 v 1.25 H 44 Z m 1.25,0 h 1.25 v 1.25 H 45.25 Z M 44,99.75 h 1.25 V 101 H 44 Z m 2.5,0 h 1.25 V 101 H 46.5 Z m 1.25,0 H 49 V 101 h -1.25 z" /></g></g><g
               id="g630"><g
                 id="g632"><path
                   inkscape:connector-curvature="0"
                   id="path634"
                   style="fill:#000000;fill-opacity:1;fill-rule:nonzero;stroke:none"
                   d="m 51.5,93.5 h 10 c 0,0 0,0 0,0 v 10 c 0,0 0,0 0,0 h -10 c 0,0 0,0 0,0 v -10 c 0,0 0,0 0,0 z" /></g></g><g
               id="g636"><g
                 id="g638"><path
                   inkscape:connector-curvature="0"
                   id="path640"
                   style="fill:#000000;fill-opacity:1;fill-rule:nonzero;stroke:none"
                   d="m 62.75,94.75 h 7.5 c 0,0 0,0 0,0 v 7.5 c 0,0 0,0 0,0 h -7.5 c 0,0 0,0 0,0 v -7.5 c 0,0 0,0 0,0 z" /></g></g><g
               id="g642"><g
                 id="g644"><path
                   inkscape:connector-curvature="0"
                   id="path646"
                   style="fill:#ffffff;fill-opacity:1;fill-rule:nonzero;stroke:none"
                   d="m 64,97.25 h 1.25 V 98.5 H 64 Z m 0,1.25 h 1.25 v 1.25 H 64 Z m 2.5,0 h 1.25 v 1.25 H 66.5 Z M 64,99.75 h 1.25 V 101 H 64 Z m 1.25,0 H 66.5 V 101 h -1.25 z m 1.25,0 h 1.25 V 101 H 66.5 Z" /></g></g><g
               id="g648"><g
                 id="g650"><path
                   inkscape:connector-curvature="0"
                   id="path652"
                   style="fill:#000000;fill-opacity:1;fill-rule:nonzero;stroke:none"
                   d="m 71.5,93.5 h 10 c 0,0 0,0 0,0 v 10 c 0,0 0,0 0,0 h -10 c 0,0 0,0 0,0 v -10 c 0,0 0,0 0,0 z" /></g></g><g
               id="g654"><g
                 id="g656"><path
                   inkscape:connector-curvature="0"
                   id="path658"
                   style="fill:#000000;fill-opacity:1;fill-rule:nonzero;stroke:none"
                   d="m 82.75,94.75 h 7.5 c 0,0 0,0 0,0 v 7.5 c 0,0 0,0 0,0 h -7.5 c 0,0 0,0 0,0 v -7.5 c 0,0 0,0 0,0 z" /></g></g><g
               id="g660"><g
                 id="g662"><path
                   inkscape:connector-curvature="0"
                   id="path664"
                   style="fill:#ffffff;fill-opacity:1;fill-rule:nonzero;stroke:none"
                   d="m 84,97.25 h 1.25 V 98.5 H 84 Z m 3.75,0 H 89 V 98.5 H 87.75 Z M 86.5,98.5 h 1.25 v 1.25 H 86.5 Z M 84,99.75 h 1.25 V 101 H 84 Z m 3.75,0 H 89 V 101 h -1.25 z" /></g></g><g
               id="g666"><g
                 id="g668"><path
                   inkscape:connector-curvature="0"
                   id="path670"
                   style="fill:#000000;fill-opacity:1;fill-rule:nonzero;stroke:none"
                   d="m 12.75,104.75 h 7.5 c 0,0 0,0 0,0 v 7.5 c 0,0 0,0 0,0 h -7.5 c 0,0 0,0 0,0 v -7.5 c 0,0 0,0 0,0 z" /></g></g><g
               id="g672"><g
                 id="g674"><path
                   inkscape:connector-curvature="0"
                   id="path676"
                   style="fill:#ffffff;fill-opacity:1;fill-rule:nonzero;stroke:none"
                   d="M 17.75,106 H 19 v 1.25 H 17.75 Z M 14,107.25 h 1.25 v 1.25 H 14 Z m 1.25,1.25 h 1.25 v 1.25 h -1.25 z m 1.25,0 h 1.25 v 1.25 H 16.5 Z m 1.25,0 H 19 v 1.25 h -1.25 z m -2.5,1.25 H 16.5 V 111 h -1.25 z m 2.5,0 H 19 V 111 h -1.25 z" /></g></g><g
               id="g678"><g
                 id="g680"><path
                   inkscape:connector-curvature="0"
                   id="path682"
                   style="fill:#000000;fill-opacity:1;fill-rule:nonzero;stroke:none"
                   d="m 21.5,103.5 h 10 c 0,0 0,0 0,0 v 10 c 0,0 0,0 0,0 h -10 c 0,0 0,0 0,0 v -10 c 0,0 0,0 0,0 z" /></g></g><g
               id="g684"><g
                 id="g686"><path
                   inkscape:connector-curvature="0"
                   id="path688"
                   style="fill:#000000;fill-opacity:1;fill-rule:nonzero;stroke:none"
                   d="m 32.75,104.75 h 7.5 c 0,0 0,0 0,0 v 7.5 c 0,0 0,0 0,0 h -7.5 c 0,0 0,0 0,0 v -7.5 c 0,0 0,0 0,0 z" /></g></g><g
               id="g690"><g
                 id="g692"><path
                   inkscape:connector-curvature="0"
                   id="path694"
                   style="fill:#ffffff;fill-opacity:1;fill-rule:nonzero;stroke:none"
                   d="m 35.25,107.25 h 1.25 v 1.25 H 35.25 Z M 34,108.5 h 1.25 v 1.25 H 34 Z m 1.25,0 h 1.25 v 1.25 h -1.25 z m 1.25,0 h 1.25 v 1.25 H 36.5 Z m 1.25,0 H 39 v 1.25 H 37.75 Z M 34,109.75 h 1.25 V 111 H 34 Z m 1.25,0 H 36.5 V 111 h -1.25 z m 1.25,0 h 1.25 V 111 H 36.5 Z m 1.25,0 H 39 V 111 h -1.25 z" /></g></g><g
               id="g696"><g
                 id="g698"><path
                   inkscape:connector-curvature="0"
                   id="path700"
                   style="fill:#000000;fill-opacity:1;fill-rule:nonzero;stroke:none"
                   d="m 41.5,103.5 h 10 c 0,0 0,0 0,0 v 10 c 0,0 0,0 0,0 h -10 c 0,0 0,0 0,0 v -10 c 0,0 0,0 0,0 z" /></g></g><g
               id="g702"><g
                 id="g704"><path
                   inkscape:connector-curvature="0"
                   id="path706"
                   style="fill:#000000;fill-opacity:1;fill-rule:nonzero;stroke:none"
                   d="m 52.75,104.75 h 7.5 c 0,0 0,0 0,0 v 7.5 c 0,0 0,0 0,0 h -7.5 c 0,0 0,0 0,0 v -7.5 c 0,0 0,0 0,0 z" /></g></g><g
               id="g708"><g
                 id="g710"><path
                   inkscape:connector-curvature="0"
                   id="path712"
                   style="fill:#ffffff;fill-opacity:1;fill-rule:nonzero;stroke:none"
                   d="m 54,107.25 h 1.25 v 1.25 H 54 Z m 1.25,0 h 1.25 v 1.25 h -1.25 z m 2.5,0 H 59 v 1.25 H 57.75 Z M 54,108.5 h 1.25 v 1.25 H 54 Z m 1.25,0 h 1.25 v 1.25 h -1.25 z m 1.25,0 h 1.25 v 1.25 H 56.5 Z m 1.25,0 H 59 v 1.25 h -1.25 z m -2.5,1.25 H 56.5 V 111 h -1.25 z m 1.25,0 h 1.25 V 111 H 56.5 Z" /></g></g><g
               id="g714"><g
                 id="g716"><path
                   inkscape:connector-curvature="0"
                   id="path718"
                   style="fill:#000000;fill-opacity:1;fill-rule:nonzero;stroke:none"
                   d="m 61.5,103.5 h 10 c 0,0 0,0 0,0 v 10 c 0,0 0,0 0,0 h -10 c 0,0 0,0 0,0 v -10 c 0,0 0,0 0,0 z" /></g></g><g
               id="g720"><g
                 id="g722"><path
                   inkscape:connector-curvature="0"
                   id="path724"
                   style="fill:#000000;fill-opacity:1;fill-rule:nonzero;stroke:none"
                   d="m 72.75,104.75 h 7.5 c 0,0 0,0 0,0 v 7.5 c 0,0 0,0 0,0 h -7.5 c 0,0 0,0 0,0 v -7.5 c 0,0 0,0 0,0 z" /></g></g><g
               id="g726"><g
                 id="g728"><path
                   inkscape:connector-curvature="0"
                   id="path730"
                   style="fill:#ffffff;fill-opacity:1;fill-rule:nonzero;stroke:none"
                   d="M 77.75,106 H 79 v 1.25 H 77.75 Z M 74,107.25 h 1.25 v 1.25 H 74 Z m 1.25,0 h 1.25 v 1.25 h -1.25 z m 0,1.25 h 1.25 v 1.25 h -1.25 z m 2.5,0 H 79 v 1.25 H 77.75 Z M 74,109.75 h 1.25 V 111 H 74 Z m 2.5,0 h 1.25 V 111 H 76.5 Z" /></g></g><g
               id="g732"><g
                 id="g734"><path
                   inkscape:connector-curvature="0"
                   id="path736"
                   style="fill:#000000;fill-opacity:1;fill-rule:nonzero;stroke:none"
                   d="m 81.5,103.5 h 10 c 0,0 0,0 0,0 v 10 c 0,0 0,0 0,0 h -10 c 0,0 0,0 0,0 v -10 c 0,0 0,0 0,0 z" /></g></g><g
               id="g738"><g
                 id="g740"><path
                   inkscape:connector-curvature="0"
                   id="path742"
                   style="fill:#000000;fill-opacity:1;fill-rule:nonzero;stroke:none"
                   d="m 11.5,113.5 h 10 c 0,0 0,0 0,0 v 10 c 0,0 0,0 0,0 h -10 c 0,0 0,0 0,0 v -10 c 0,0 0,0 0,0 z" /></g></g><g
               id="g744"><g
                 id="g746"><path
                   inkscape:connector-curvature="0"
                   id="path748"
                   style="fill:#000000;fill-opacity:1;fill-rule:nonzero;stroke:none"
                   d="m 22.75,114.75 h 7.5 c 0,0 0,0 0,0 v 7.5 c 0,0 0,0 0,0 h -7.5 c 0,0 0,0 0,0 v -7.5 c 0,0 0,0 0,0 z" /></g></g><g
               id="g750"><g
                 id="g752"><path
                   inkscape:connector-curvature="0"
                   id="path754"
                   style="fill:#ffffff;fill-opacity:1;fill-rule:nonzero;stroke:none"
                   d="M 27.75,116 H 29 v 1.25 h -1.25 z m -2.5,1.25 h 1.25 v 1.25 h -1.25 z m 1.25,0 h 1.25 v 1.25 H 26.5 Z m 1.25,0 H 29 v 1.25 h -1.25 z m 0,1.25 H 29 v 1.25 H 27.75 Z M 24,119.75 h 1.25 V 121 H 24 Z" /></g></g><g
               id="g756"><g
                 id="g758"><path
                   inkscape:connector-curvature="0"
                   id="path760"
                   style="fill:#000000;fill-opacity:1;fill-rule:nonzero;stroke:none"
                   d="m 31.5,113.5 h 10 c 0,0 0,0 0,0 v 10 c 0,0 0,0 0,0 h -10 c 0,0 0,0 0,0 v -10 c 0,0 0,0 0,0 z" /></g></g><g
               id="g762"><g
                 id="g764"><path
                   inkscape:connector-curvature="0"
                   id="path766"
                   style="fill:#000000;fill-opacity:1;fill-rule:nonzero;stroke:none"
                   d="m 42.75,114.75 h 7.5 c 0,0 0,0 0,0 v 7.5 c 0,0 0,0 0,0 h -7.5 c 0,0 0,0 0,0 v -7.5 c 0,0 0,0 0,0 z" /></g></g><g
               id="g768"><g
                 id="g770"><path
                   inkscape:connector-curvature="0"
                   id="path772"
                   style="fill:#ffffff;fill-opacity:1;fill-rule:nonzero;stroke:none"
                   d="m 46.5,116 h 1.25 v 1.25 H 46.5 Z m -2.5,1.25 h 1.25 v 1.25 H 44 Z m 2.5,0 h 1.25 v 1.25 H 46.5 Z m 0,1.25 h 1.25 v 1.25 H 46.5 Z m -2.5,1.25 h 1.25 V 121 H 44 Z" /></g></g><g
               id="g774"><g
                 id="g776"><path
                   inkscape:connector-curvature="0"
                   id="path778"
                   style="fill:#000000;fill-opacity:1;fill-rule:nonzero;stroke:none"
                   d="m 51.5,113.5 h 10 c 0,0 0,0 0,0 v 10 c 0,0 0,0 0,0 h -10 c 0,0 0,0 0,0 v -10 c 0,0 0,0 0,0 z" /></g></g><g
               id="g780"><g
                 id="g782"><path
                   inkscape:connector-curvature="0"
                   id="path784"
                   style="fill:#000000;fill-opacity:1;fill-rule:nonzero;stroke:none"
                   d="m 62.75,114.75 h 7.5 c 0,0 0,0 0,0 v 7.5 c 0,0 0,0 0,0 h -7.5 c 0,0 0,0 0,0 v -7.5 c 0,0 0,0 0,0 z" /></g></g><g
               id="g786"><g
                 id="g788"><path
                   inkscape:connector-curvature="0"
                   id="path790"
                   style="fill:#ffffff;fill-opacity:1;fill-rule:nonzero;stroke:none"
                   d="m 66.5,116 h 1.25 v 1.25 H 66.5 Z m 1.25,0 H 69 v 1.25 h -1.25 z m -1.25,1.25 h 1.25 v 1.25 H 66.5 Z M 64,118.5 h 1.25 v 1.25 H 64 Z m 0,1.25 h 1.25 V 121 H 64 Z m 1.25,0 H 66.5 V 121 h -1.25 z" /></g></g><g
               id="g792"><g
                 id="g794"><path
                   inkscape:connector-curvature="0"
                   id="path796"
                   style="fill:#000000;fill-opacity:1;fill-rule:nonzero;stroke:none"
                   d="m 71.5,113.5 h 10 c 0,0 0,0 0,0 v 10 c 0,0 0,0 0,0 h -10 c 0,0 0,0 0,0 v -10 c 0,0 0,0 0,0 z" /></g></g><g
               id="g798"><g
                 id="g800"><path
                   inkscape:connector-curvature="0"
                   id="path802"
                   style="fill:#000000;fill-opacity:1;fill-rule:nonzero;stroke:none"
                   d="m 82.75,114.75 h 7.5 c 0,0 0,0 0,0 v 7.5 c 0,0 0,0 0,0 h -7.5 c 0,0 0,0 0,0 v -7.5 c 0,0 0,0 0,0 z" /></g></g><g
               id="g804"><g
                 id="g806"><path
                   inkscape:connector-curvature="0"
                   id="path808"
                   style="fill:#ffffff;fill-opacity:1;fill-rule:nonzero;stroke:none"
                   d="m 86.5,116 h 1.25 v 1.25 H 86.5 Z m 1.25,0 H 89 v 1.25 H 87.75 Z M 84,117.25 h 1.25 v 1.25 H 84 Z m 0,1.25 h 1.25 v 1.25 H 84 Z m 2.5,0 h 1.25 v 1.25 H 86.5 Z m 1.25,0 H 89 v 1.25 h -1.25 z m -1.25,1.25 h 1.25 V 121 H 86.5 Z" /></g></g></g><g
             id="g810"
             transform="translate(0,6.8755651)"><g
               id="g812"><path
                 d="m 3.476998,134 h -0.275 l -0.476,-1.556 h 0.272 l 0.248,0.898 0.092,0.33399 c 0.004,-0.0167 0.031,-0.12366 0.081,-0.32099 v 0 l 0.247,-0.911 h 0.271 l 0.233,0.903 0.078,0.297 0.089,-0.30001 0.267,-0.89999 h 0.256 l -0.486,1.556 h -0.274 l -0.248,-0.93201 -0.06,-0.265 z m 2.167,0 h -0.276 l -0.476,-1.556 h 0.273 l 0.247,0.898 0.093,0.33399 c 0.0033,-0.0167 0.03,-0.12366 0.08,-0.32099 v 0 l 0.248,-0.911 h 0.271 l 0.233,0.903 0.077,0.297 0.09,-0.30001 0.266,-0.89999 h 0.257 l -0.487,1.556 h -0.274 l -0.247,-0.93201 -0.06,-0.265 z m 2.166,0 h -0.275 l -0.476,-1.556 h 0.272 l 0.248,0.898 0.092,0.33399 c 0.004,-0.0167 0.031,-0.12366 0.081,-0.32099 v 0 l 0.247,-0.911 h 0.271 l 0.233,0.903 0.078,0.297 0.089,-0.30001 0.266999,-0.89999 h 0.256001 l -0.486,1.556 h -0.274 l -0.248,-0.93201 -0.06,-0.265 z m 1.814,0 H 9.322999 v -0.3 h 0.300999 z m 1.472999,-0.57001 v 0 l 0.26,0.034 c -0.02867,0.17866 -0.101332,0.31866 -0.217998,0.42 -0.116668,0.10067 -0.260001,0.151 -0.43,0.151 v 0 c -0.212667,0 -0.383667,-0.0697 -0.513001,-0.209 -0.129333,-0.13867 -0.194,-0.338 -0.194,-0.598 v 0 c 0,-0.168 0.02767,-0.315 0.083,-0.441 0.056,-0.12599 0.140666,-0.22033 0.254,-0.283 0.113999,-0.0633 0.237999,-0.095 0.371999,-0.095 v 0 c 0.168667,0 0.306668,0.0427 0.414002,0.128 0.107333,0.086 0.176332,0.20733 0.206999,0.364 v 0 l -0.257,0.04 c -0.024,-0.10466 -0.067,-0.18333 -0.129,-0.23599 -0.062,-0.0527 -0.137,-0.079 -0.225,-0.079 v 0 c -0.132667,0 -0.240666,0.0477 -0.324,0.14299 -0.08267,0.0953 -0.124,0.246 -0.124,0.45199 v 0 c 0,0.20867 0.04,0.36034 0.120001,0.455 0.08,0.0947 0.184332,0.142 0.312999,0.142 v 0 c 0.104,0 0.190667,-0.0317 0.260001,-0.095 0.06933,-0.0633 0.112999,-0.16101 0.130998,-0.29302 z m 1.5,0.37801 v 0 c -0.09733,0.0833 -0.191333,0.142 -0.281999,0.17599 -0.09,0.034 -0.186667,0.051 -0.289999,0.051 v 0 c -0.171334,0 -0.302667,-0.0417 -0.394001,-0.125 -0.092,-0.0833 -0.138001,-0.19 -0.138001,-0.32 v 0 c 0,-0.076 0.01733,-0.14567 0.052,-0.209 0.03467,-0.0627 0.08,-0.11333 0.136002,-0.152 0.056,-0.038 0.119332,-0.0667 0.189998,-0.086 v 0 c 0.05134,-0.0133 0.129335,-0.0263 0.234001,-0.039 v 0 c 0.213334,-0.026 0.37,-0.0563 0.47,-0.091 v 0 c 0.0013,-0.0367 0.002,-0.0597 0.002,-0.069 v 0 c 0,-0.10733 -0.025,-0.183 -0.075,-0.227 v 0 c -0.06733,-0.06 -0.167333,-0.09 -0.299999,-0.09 v 0 c -0.124001,0 -0.215668,0.022 -0.275002,0.066 -0.05867,0.0433 -0.102332,0.12001 -0.130999,0.23001 v 0 l -0.258001,-0.035 c 0.02333,-0.11 0.062,-0.19899 0.116001,-0.267 0.054,-0.068 0.131666,-0.12033 0.233,-0.157 0.101334,-0.0367 0.219001,-0.055 0.353001,-0.055 v 0 c 0.132666,0 0.240666,0.0157 0.323999,0.047 0.08267,0.0313 0.143667,0.0707 0.183001,0.11802 0.03867,0.0473 0.066,0.10699 0.082,0.179 v 0 c 0.0087,0.0453 0.013,0.12665 0.013,0.24398 v 0 0.35102 c 0,0.24533 0.0057,0.40033 0.017,0.46499 0.01133,0.0653 0.03333,0.12766 0.066,0.187 v 0 H 12.65 c -0.02733,-0.0547 -0.045,-0.11867 -0.053,-0.192 z m -0.022,-0.49201 v -0.097 c -0.09533,0.0393 -0.238667,0.0727 -0.430001,0.10001 v 0 c -0.108666,0.0153 -0.185333,0.033 -0.229999,0.053 -0.04533,0.0193 -0.08,0.0477 -0.104,0.085 -0.02467,0.038 -0.037,0.08 -0.037,0.12599 v 0 c 0,0.07 0.02667,0.12834 0.08,0.17501 0.05333,0.0473 0.131334,0.071 0.234001,0.071 v 0 c 0.101334,0 0.191667,-0.0223 0.271,-0.067 0.07867,-0.0446 0.136667,-0.10532 0.174,-0.18199 v 0 c 0.028,-0.06 0.042,-0.148 0.042,-0.26401 v 0 z M 13.508998,134 h -0.264 v -2.147 h 0.264 z m 0.673,-1.84399 h -0.263 V 131.853 h 0.263 z m 0,1.84399 h -0.263 v -1.556 h 0.263 z m 0.645001,-0.19501 V 134 h -0.245001 v -2.147 h 0.264 v 0.766 c 0.111333,-0.14 0.253333,-0.21 0.426,-0.21 v 0 c 0.096,0 0.186666,0.0193 0.272,0.058 0.08533,0.0387 0.155667,0.093 0.211,0.163 0.05533,0.0693 0.09833,0.15333 0.129,0.252 0.03133,0.0987 0.047,0.20433 0.047,0.31701 v 0 c 0,0.26666 -0.06567,0.47266 -0.197001,0.61799 -0.132,0.14534 -0.290333,0.218 -0.475,0.218 v 0 c -0.183333,0 -0.327333,-0.0767 -0.431998,-0.23001 z m -0.003,-0.59498 v 0 c 0,0.18666 0.02533,0.32166 0.076,0.405 v 0 c 0.08333,0.13532 0.195666,0.20298 0.336999,0.20298 v 0 c 0.115334,0 0.215001,-0.05 0.299,-0.14999 0.084,-0.1 0.126,-0.249 0.126,-0.44701 v 0 c 0,-0.20333 -0.04033,-0.35332 -0.121001,-0.44999 -0.08067,-0.0967 -0.178,-0.14499 -0.291999,-0.14499 v 0 c -0.115334,0 -0.215001,0.05 -0.299,0.14999 -0.084,0.1 -0.126,0.24467 -0.125999,0.43401 z M 16.626998,134 h -0.299999 v -0.3 h 0.299999 z m 0.724001,-1.84399 h -0.264 V 131.853 h 0.264 z m 0,1.84399 h -0.264 v -1.556 h 0.264 z m 0.302999,-0.778 v 0 c 0,-0.288 0.08,-0.50134 0.24,-0.64 v 0 c 0.134,-0.11534 0.297333,-0.173 0.49,-0.173 v 0 c 0.213333,0 0.388,0.07 0.524,0.21 0.136,0.14067 0.204,0.33433 0.204,0.581 v 0 c 0,0.2 -0.03033,0.35767 -0.091,0.473 -0.06,0.11467 -0.147334,0.20367 -0.262001,0.267 -0.114666,0.0633 -0.239666,0.095 -0.375,0.095 v 0 c -0.218,0 -0.394333,-0.0697 -0.529,-0.209 -0.134,-0.14 -0.201,-0.34134 -0.201,-0.604 z m 0.271,0 v 0 c 0,0.19933 0.04333,0.34866 0.129999,0.448 0.08733,0.0987 0.197001,0.14799 0.329001,0.14799 v 0 c 0.130667,0 0.239334,-0.0497 0.326,-0.14898 0.08733,-0.0993 0.131001,-0.25134 0.131001,-0.45601 v 0 c 0,-0.192 -0.044,-0.33766 -0.132,-0.437 -0.08733,-0.0993 -0.195668,-0.149 -0.325001,-0.149 v 0 c -0.132,0 -0.241667,0.0493 -0.329001,0.14799 -0.08667,0.0987 -0.129999,0.24768 -0.129999,0.44701 z m 2.636999,1.409 h -0.229999 v -2.81501 h 0.229999 z m 2.225001,-2.78701 V 134 h -0.264 v -1.67999 c -0.06333,0.0607 -0.146666,0.12099 -0.25,0.181 -0.102666,0.0607 -0.195,0.10632 -0.277001,0.13699 v 0 -0.255 c 0.147334,-0.0693 0.276334,-0.15333 0.387001,-0.252 0.11,-0.0987 0.187999,-0.19433 0.234,-0.28701 v 0 z m 1.446001,0 V 134 h -0.264 v -1.67999 c -0.06333,0.0607 -0.146668,0.12099 -0.25,0.181 -0.102668,0.0607 -0.195001,0.10632 -0.277001,0.13699 v 0 -0.255 c 0.147333,-0.0693 0.275999,-0.15333 0.386,-0.252 0.110667,-0.0987 0.189001,-0.19433 0.235001,-0.28701 v 0 z m 0.892,2.15601 h -0.32 l 0.569,-0.80901 -0.526,-0.74699 h 0.328998 l 0.239002,0.36501 c 0.04533,0.0693 0.08166,0.12732 0.108998,0.17399 v 0 c 0.04267,-0.064 0.082,-0.12101 0.118,-0.171 v 0 l 0.262001,-0.368 h 0.314998 l -0.536998,0.733 0.577999,0.823 h -0.322998 l -0.32,-0.483 -0.085,-0.131 z m 1.688999,-1.16499 v 0 c -0.109334,-0.04 -0.190334,-0.097 -0.243,-0.17101 -0.05333,-0.074 -0.08,-0.163 -0.08,-0.267 v 0 c 0,-0.156 0.05633,-0.28734 0.169003,-0.39399 0.111999,-0.10601 0.261332,-0.15902 0.447998,-0.15902 v 0 c 0.187335,0 0.338336,0.0543 0.453003,0.16301 0.113998,0.10867 0.170997,0.24133 0.170997,0.398 v 0 c 0,0.0993 -0.026,0.186 -0.078,0.25999 -0.05266,0.0733 -0.131998,0.13001 -0.237999,0.17002 v 0 c 0.131333,0.0433 0.231666,0.11265 0.300999,0.20799 0.06867,0.096 0.103001,0.21033 0.103001,0.343 v 0 c 0,0.184 -0.065,0.33833 -0.195,0.463 -0.13,0.12533 -0.300667,0.188 -0.512001,0.188 v 0 c -0.212001,0 -0.383001,-0.063 -0.513001,-0.18899 -0.13,-0.12534 -0.195,-0.28167 -0.195,-0.46901 v 0 c 0,-0.14 0.03533,-0.257 0.105999,-0.351 0.07067,-0.094 0.171669,-0.15834 0.303001,-0.19299 z m -0.053,-0.446 v 0 c 0,0.10133 0.03267,0.18432 0.098,0.24899 0.06534,0.064 0.150336,0.096 0.255001,0.096 v 0 c 0.101334,0 0.184667,-0.032 0.25,-0.096 0.06467,-0.064 0.097,-0.14233 0.097,-0.235 v 0 c 0,-0.0967 -0.03333,-0.178 -0.1,-0.244 -0.06733,-0.0653 -0.150668,-0.098 -0.25,-0.098 v 0 c -0.100667,0 -0.184001,0.032 -0.25,0.096 -0.06667,0.0647 -0.100002,0.142 -0.100002,0.23201 z m -0.085,0.99099 v 0 c 0,0.0753 0.01767,0.14833 0.053,0.219 0.036,0.07 0.089,0.12433 0.159,0.16299 0.07067,0.0387 0.146332,0.058 0.226998,0.058 v 0 c 0.126002,0 0.230002,-0.0407 0.312,-0.12201 0.082,-0.0807 0.123001,-0.18367 0.123001,-0.30899 v 0 c 0,-0.12667 -0.042,-0.23167 -0.125999,-0.315 -0.08467,-0.0827 -0.190333,-0.12401 -0.317002,-0.12401 v 0 c -0.124,0 -0.227,0.041 -0.308998,0.123 -0.08133,0.082 -0.122001,0.18433 -0.122001,0.307 z m 2.615001,1.251 H 29.061 v -2.81501 h 0.229999 z m 2.870999,-1.38401 v 0 l 0.284,0.072 c -0.05933,0.23334 -0.166667,0.41134 -0.321999,0.534 -0.154668,0.12267 -0.343668,0.184 -0.567001,0.184 v 0 c -0.231333,0 -0.419666,-0.0473 -0.564998,-0.142 -0.144669,-0.094 -0.255003,-0.23034 -0.331002,-0.40901 -0.07533,-0.17866 -0.112999,-0.37065 -0.112999,-0.57599 v 0 c 0,-0.22333 0.04267,-0.41834 0.127999,-0.585 0.08533,-0.16667 0.206668,-0.293 0.364002,-0.379 0.158,-0.0867 0.331666,-0.13001 0.521,-0.13001 v 0 c 0.215332,0 0.395998,0.0547 0.542,0.16401 0.146665,0.10933 0.248664,0.263 0.305999,0.46099 v 0 l -0.279003,0.066 c -0.05,-0.156 -0.122331,-0.26967 -0.216999,-0.341 -0.09466,-0.0713 -0.213998,-0.10699 -0.357998,-0.10699 v 0 c -0.164668,0 -0.302335,0.0397 -0.413002,0.11898 -0.111333,0.0787 -0.189332,0.18468 -0.233997,0.31801 -0.04467,0.13333 -0.067,0.271 -0.067,0.413 v 0 c 0,0.18266 0.02633,0.342 0.079,0.47799 0.05334,0.13601 0.136335,0.23768 0.249001,0.30501 0.111999,0.0673 0.233333,0.101 0.364002,0.101 v 0 c 0.159332,0 0.294332,-0.0457 0.404999,-0.13699 0.11,-0.092 0.184667,-0.22834 0.223999,-0.40902 z M 33.025996,134 h -0.264 v -2.147 h 0.264 v 0.77 c 0.123334,-0.14267 0.278669,-0.214 0.466004,-0.214 v 0 c 0.115333,0 0.215333,0.0227 0.299999,0.068 0.08533,0.0453 0.146332,0.10832 0.182998,0.18899 0.03667,0.08 0.055,0.196 0.055,0.34801 v 0 0.98599 h -0.264 V 133.014 c 0,-0.13201 -0.02867,-0.22801 -0.086,-0.28801 -0.05734,-0.06 -0.138002,-0.09 -0.242,-0.09 v 0 c -0.078,0 -0.151668,0.0203 -0.221001,0.061 -0.06867,0.0407 -0.117667,0.0957 -0.146999,0.16499 -0.02933,0.0693 -0.044,0.165 -0.044,0.287 v 0 0.851 z m 2.470001,-0.50101 v 0 l 0.272,0.034 c -0.04267,0.15867 -0.121999,0.282 -0.237999,0.37 -0.116666,0.088 -0.265333,0.132 -0.445999,0.132 v 0 c -0.227333,0 -0.407667,-0.07 -0.541001,-0.21 -0.133334,-0.14 -0.200001,-0.33666 -0.200001,-0.59 v 0 c 0,-0.26133 0.06733,-0.46433 0.202,-0.60899 0.134667,-0.14468 0.309667,-0.21701 0.525002,-0.21701 v 0 c 0.208,0 0.377666,0.071 0.508999,0.21299 0.132001,0.14134 0.198001,0.34034 0.198001,0.597 v 0 c 0,0.016 -3.34e-4,0.0397 -0.001,0.071 v 0 H 34.615 c 0.01,0.17068 0.05833,0.30135 0.145,0.39202 0.08733,0.0907 0.196001,0.13598 0.326,0.13598 v 0 c 0.09667,0 0.179001,-0.0253 0.247002,-0.076 0.06867,-0.0507 0.123,-0.13167 0.162998,-0.24301 z M 34.629996,133.073 v 0 h 0.869003 c -0.012,-0.13133 -0.04534,-0.22966 -0.100002,-0.295 v 0 c -0.084,-0.10133 -0.192999,-0.15199 -0.326999,-0.15199 v 0 c -0.120667,0 -0.222334,0.0407 -0.305001,0.12199 -0.08267,0.0807 -0.128334,0.189 -0.137001,0.325 z m 2.484001,0.35699 v 0 l 0.260002,0.034 c -0.02867,0.17866 -0.101336,0.31866 -0.218002,0.42 -0.116666,0.10067 -0.259999,0.151 -0.43,0.151 v 0 c -0.212667,0 -0.383667,-0.0697 -0.513001,-0.209 -0.129333,-0.13867 -0.194,-0.338 -0.194,-0.598 v 0 c 0,-0.168 0.02767,-0.315 0.083,-0.441 0.056,-0.12599 0.14067,-0.22033 0.254002,-0.283 0.114001,-0.0633 0.238001,-0.095 0.372002,-0.095 v 0 c 0.168665,0 0.306664,0.0427 0.413997,0.128 0.107333,0.086 0.176333,0.20733 0.207001,0.364 v 0 l -0.257,0.04 c -0.024,-0.10466 -0.067,-0.18333 -0.129002,-0.23599 -0.062,-0.0527 -0.136998,-0.079 -0.224998,-0.079 v 0 c -0.132668,0 -0.240668,0.0477 -0.324001,0.14299 -0.08266,0.0953 -0.123997,0.246 -0.123997,0.45199 v 0 c 0,0.20867 0.04,0.36034 0.119999,0.455 0.08,0.0947 0.184332,0.142 0.313,0.142 v 0 c 0.103998,0 0.190664,-0.0317 0.259998,-0.095 0.06933,-0.0633 0.113,-0.16101 0.131,-0.29302 z m 0.75,0.57001 h -0.263 v -2.147 h 0.263 v 1.224 l 0.624001,-0.633 h 0.341999 L 38.235,133.021 38.889998,134 h -0.325 l -0.515,-0.795 -0.186001,0.178 z m 2.3,-0.50101 v 0 l 0.273002,0.034 c -0.04334,0.15867 -0.123002,0.282 -0.239002,0.37 -0.116,0.088 -0.264333,0.132 -0.445,0.132 v 0 c -0.227999,0 -0.408666,-0.07 -0.542,-0.21 -0.133333,-0.14 -0.2,-0.33666 -0.2,-0.59 v 0 c 0,-0.26133 0.06767,-0.46433 0.203003,-0.60899 0.134666,-0.14468 0.309332,-0.21701 0.523998,-0.21701 v 0 c 0.208,0 0.378,0.071 0.509998,0.21299 0.132001,0.14134 0.198002,0.34034 0.198002,0.597 v 0 c 0,0.016 -6.66e-4,0.0397 -0.002,0.071 v 0 h -1.16 c 0.01,0.17068 0.05833,0.30135 0.145001,0.39202 0.08667,0.0907 0.194997,0.13598 0.324997,0.13598 v 0 c 0.09667,0 0.179334,-0.0253 0.248001,-0.076 0.068,-0.0507 0.122,-0.13167 0.161999,-0.24301 z M 39.298999,133.073 v 0 h 0.868 c -0.01134,-0.13133 -0.04434,-0.22966 -0.099,-0.295 v 0 c -0.084,-0.10133 -0.193004,-0.15199 -0.327004,-0.15199 v 0 c -0.121333,0 -0.222998,0.0407 -0.304996,0.12199 -0.08267,0.0807 -0.128334,0.189 -0.137,0.325 z M 41.028998,134 h -0.264 v -1.556 h 0.237 v 0.23599 c 0.06067,-0.10999 0.116666,-0.18266 0.167999,-0.21798 0.05133,-0.0353 0.107667,-0.053 0.169003,-0.053 v 0 c 0.08867,0 0.178999,0.0283 0.271,0.085 v 0 l -0.091,0.245 c -0.064,-0.038 -0.12833,-0.057 -0.192997,-0.057 v 0 c -0.058,0 -0.109669,0.0173 -0.155002,0.052 -0.046,0.0347 -0.079,0.0827 -0.099,0.14402 v 0 c -0.02867,0.094 -0.043,0.19666 -0.043,0.30799 v 0 0.814 z m 1.508,-0.69 v 0 l 0.268001,-0.023 c 0.01266,0.10733 0.04233,0.19533 0.089,0.26399 0.04667,0.0687 0.11867,0.12435 0.216004,0.16701 0.098,0.0427 0.207998,0.064 0.329998,0.064 v 0 c 0.107999,0 0.203665,-0.0163 0.286998,-0.049 0.08267,-0.032 0.144334,-0.076 0.185002,-0.132 0.04067,-0.056 0.061,-0.11733 0.061,-0.18399 v 0 c 0,-0.0673 -0.01967,-0.12635 -0.059,-0.177 -0.03867,-0.05 -0.102999,-0.092 -0.192997,-0.12601 v 0 c -0.058,-0.0227 -0.185335,-0.0577 -0.382,-0.105 -0.197335,-0.0473 -0.335668,-0.092 -0.415001,-0.134 v 0 c -0.102666,-0.054 -0.179,-0.12066 -0.229,-0.2 -0.05067,-0.0793 -0.076,-0.16833 -0.076,-0.267 v 0 c 0,-0.10867 0.031,-0.21 0.093,-0.304 0.06133,-0.0947 0.151002,-0.16633 0.269001,-0.21499 0.118001,-0.0487 0.249335,-0.073 0.394001,-0.073 v 0 c 0.159332,0 0.299665,0.0257 0.420998,0.077 0.122001,0.0513 0.215669,0.12666 0.281002,0.22599 0.06533,0.1 0.100333,0.213 0.104999,0.33899 v 0 l -0.271999,0.02 c -0.01467,-0.136 -0.06433,-0.23867 -0.149002,-0.308 -0.08467,-0.0693 -0.209333,-0.10401 -0.374001,-0.10401 v 0 c -0.171999,0 -0.297333,0.0317 -0.375999,0.095 -0.07867,0.0627 -0.118,0.13867 -0.118,0.22801 v 0 c 0,0.0767 0.028,0.13999 0.084,0.18998 v 0 c 0.05467,0.05 0.197335,0.10101 0.428002,0.153 0.231333,0.0527 0.39,0.0984 0.476001,0.13701 v 0 c 0.124667,0.058 0.216666,0.13099 0.275998,0.219 0.06,0.0887 0.09,0.19066 0.09,0.306 v 0 c 0,0.114 -0.03267,0.22167 -0.098,0.323 -0.066,0.10066 -0.159998,0.179 -0.281997,0.235 -0.122668,0.0567 -0.260669,0.085 -0.414002,0.085 v 0 c -0.194666,0 -0.357666,-0.0283 -0.488998,-0.085 -0.131335,-0.0567 -0.234336,-0.142 -0.309002,-0.256 -0.07467,-0.114 -0.114,-0.24267 -0.118,-0.386 z m 2.328998,-1.15399 H 44.603 V 131.853 h 0.262996 z m 0,1.84399 H 44.603 v -1.556 h 0.262996 z m 1.640003,0 h -1.377002 v -0.214 l 0.990001,-1.137 c -0.112665,0.006 -0.211999,0.009 -0.298,0.009 v 0 h -0.633999 v -0.214 h 1.272 v 0.175 l -0.843003,0.987 -0.161998,0.18 c 0.118001,-0.009 0.228668,-0.013 0.332,-0.013 v 0 h 0.720001 v 0.22701 z m 1.327,-0.50101 v 0 l 0.271999,0.034 c -0.04267,0.15867 -0.122333,0.282 -0.239002,0.37 -0.116,0.088 -0.264333,0.132 -0.444999,0.132 v 0 c -0.227334,0 -0.407667,-0.07 -0.541001,-0.21 -0.133331,-0.14 -0.199997,-0.33666 -0.199997,-0.59 v 0 c 0,-0.26133 0.06733,-0.46433 0.202,-0.60899 0.134666,-0.14468 0.309332,-0.21701 0.523998,-0.21701 v 0 c 0.208,0 0.378001,0.071 0.510002,0.21299 0.131999,0.14134 0.197998,0.34034 0.197998,0.597 v 0 c 0,0.016 -3.33e-4,0.0397 -9.99e-4,0.071 v 0 h -1.160999 c 0.01,0.17068 0.05833,0.30135 0.145,0.39202 0.08733,0.0907 0.196,0.13598 0.326,0.13598 v 0 c 0.09667,0 0.179,-0.0253 0.246998,-0.076 0.06867,-0.0507 0.123001,-0.13167 0.163002,-0.24301 z M 46.966998,133.073 v 0 h 0.868999 c -0.012,-0.13133 -0.04533,-0.22966 -0.1,-0.295 v 0 c -0.084,-0.10133 -0.193,-0.15199 -0.327,-0.15199 v 0 c -0.120666,0 -0.222333,0.0407 -0.305,0.12199 -0.08267,0.0807 -0.128334,0.189 -0.137001,0.325 z m 1.842999,-0.328 h -0.300999 v -0.301 h 0.300999 z m 0,1.255 h -0.300999 v -0.3 h 0.300999 z m 2.213001,-2.15601 V 134 h -0.264 v -1.67999 c -0.06333,0.0607 -0.146335,0.12099 -0.249001,0.181 -0.103332,0.0607 -0.195999,0.10632 -0.278,0.13699 v 0 -0.255 c 0.147334,-0.0693 0.276335,-0.15333 0.387001,-0.252 0.110001,-0.0987 0.188001,-0.19433 0.234002,-0.28701 v 0 z m 0.674999,1.097 v 0 c 0,-0.25399 0.02633,-0.45832 0.079,-0.61299 0.052,-0.15467 0.129666,-0.274 0.232998,-0.358 0.102666,-0.084 0.232333,-0.12601 0.389,-0.12601 v 0 c 0.114667,0 0.215668,0.023 0.303002,0.069 0.08667,0.0467 0.158334,0.11368 0.215,0.20101 0.05667,0.0873 0.100999,0.19366 0.132999,0.319 0.03267,0.126 0.049,0.29533 0.049,0.50799 v 0 c 0,0.25201 -0.026,0.45534 -0.078,0.61 -0.05133,0.15468 -0.128667,0.27435 -0.232002,0.35901 -0.103333,0.0847 -0.233333,0.127 -0.39,0.127 v 0 c -0.207334,0 -0.37,-0.0743 -0.487999,-0.223 v 0 c -0.142001,-0.17866 -0.213001,-0.46967 -0.213001,-0.87301 z m 0.271,0 v 0 c 0,0.35268 0.04133,0.58735 0.124,0.70401 0.08267,0.11667 0.184667,0.17501 0.306,0.17501 v 0 c 0.120667,0 0.222333,-0.0587 0.305001,-0.17601 0.08267,-0.11733 0.124,-0.35167 0.124,-0.70301 v 0 c 0,-0.35333 -0.04133,-0.58833 -0.124,-0.705 C 52.62133,132.12 52.518664,132.062 52.395999,132.062 v 0 c -0.121333,0 -0.218,0.0513 -0.290001,0.154 v 0 c -0.09133,0.13067 -0.137001,0.37233 -0.137001,0.72499 z M 54.536998,134 h -0.263001 v -1.556 h 0.235001 v 0.21899 c 0.04933,-0.0767 0.114334,-0.13799 0.195,-0.18399 0.08133,-0.0467 0.173667,-0.07 0.277,-0.07 v 0 c 0.115333,0 0.21,0.024 0.284,0.072 0.07333,0.048 0.125333,0.115 0.155999,0.20101 v 0 C 55.543665,132.5 55.703664,132.409 55.900996,132.409 v 0 c 0.154668,0 0.273336,0.0427 0.356003,0.128 0.08333,0.086 0.125,0.21767 0.125,0.39501 v 0 V 134 h -0.263001 v -0.98 c 0,-0.10533 -0.0083,-0.18133 -0.025,-0.22799 -0.01733,-0.046 -0.04833,-0.0833 -0.093,-0.11202 -0.04533,-0.028 -0.09833,-0.042 -0.159,-0.042 v 0 c -0.109334,0 -0.200001,0.0363 -0.271999,0.10899 -0.072,0.0727 -0.108002,0.18901 -0.108002,0.349 v 0 0.90401 h -0.264 v -1.011 c 0,-0.11733 -0.02133,-0.205 -0.064,-0.263 -0.04333,-0.0587 -0.113665,-0.088 -0.210999,-0.088 v 0 c -0.07467,0 -0.143333,0.0193 -0.206001,0.058 -0.06333,0.0393 -0.109001,0.0967 -0.137001,0.172 -0.02867,0.0747 -0.043,0.18299 -0.043,0.32499 v 0 0.80701 z m 2.499,0 h -0.263 v -1.556 h 0.236 v 0.21899 c 0.04866,-0.0767 0.113332,-0.13799 0.194,-0.18399 0.08133,-0.0467 0.173668,-0.07 0.277,-0.07 v 0 c 0.115332,0 0.209997,0.024 0.283997,0.072 0.07333,0.048 0.125336,0.115 0.156006,0.20101 v 0 C 58.042666,132.5 58.202665,132.409 58.399997,132.409 v 0 c 0.154668,0 0.273335,0.0427 0.356002,0.128 0.08333,0.086 0.125,0.21767 0.125,0.39501 v 0 V 134 h -0.263 v -0.98 c 0,-0.10533 -0.0083,-0.18133 -0.025,-0.22799 -0.01733,-0.046 -0.04833,-0.0833 -0.093,-0.11202 -0.04533,-0.028 -0.098,-0.042 -0.157997,-0.042 v 0 c -0.110001,0 -0.201001,0.0363 -0.273003,0.10899 -0.072,0.0727 -0.107994,0.18901 -0.107994,0.349 v 0 0.90401 h -0.264 v -1.011 c 0,-0.11733 -0.02133,-0.205 -0.064,-0.263 -0.04333,-0.0587 -0.113667,-0.088 -0.210998,-0.088 v 0 c -0.07467,0 -0.143334,0.0193 -0.206001,0.058 -0.06334,0.0393 -0.109002,0.0967 -0.137001,0.172 -0.02867,0.0747 -0.043,0.18299 -0.043,0.32499 v 0 0.80701 z m 3.376999,0.631 h -0.229996 v -2.81501 h 0.229996 z M 62.526996,134 h -0.774994 v -2.147 H 62.491 c 0.167333,0 0.294998,0.01 0.382996,0.03 v 0 c 0.12267,0.0287 0.227671,0.08 0.315002,0.154 v 0 c 0.113332,0.096 0.197998,0.21834 0.253998,0.36701 0.056,0.14866 0.084,0.31899 0.084,0.51098 v 0 c 0,0.16267 -0.019,0.30701 -0.057,0.43302 -0.038,0.12599 -0.087,0.23032 -0.146995,0.31299 -0.05934,0.0827 -0.124336,0.14767 -0.195,0.195 -0.07067,0.0473 -0.156003,0.083 -0.256004,0.107 -0.100668,0.0247 -0.215668,0.037 -0.345001,0.037 z m -0.490998,-1.894 v 1.64099 h 0.458 c 0.141999,0 0.253332,-0.0133 0.334,-0.04 0.08,-0.0267 0.144002,-0.0637 0.192001,-0.11101 v 0 c 0.06733,-0.0673 0.119998,-0.15799 0.157998,-0.27198 0.03733,-0.11401 0.056,-0.25201 0.056,-0.41401 v 0 c 0,-0.22467 -0.037,-0.39734 -0.111,-0.518 -0.07333,-0.12067 -0.162666,-0.20134 -0.267998,-0.24201 v 0 c -0.07667,-0.0293 -0.199333,-0.044 -0.368003,-0.044 v 0 h -0.450997 z m 2.113999,0.05 h -0.264 v -0.30301 h 0.264 z m 0,1.84399 h -0.264 v -1.556 h 0.264 z m 1.416,-0.57001 v 0 l 0.259003,0.034 c -0.028,0.17866 -0.100334,0.31866 -0.217003,0.42 -0.116664,0.10067 -0.259997,0.151 -0.43,0.151 v 0 c -0.212667,0 -0.383667,-0.0697 -0.513001,-0.209 -0.13,-0.13867 -0.195,-0.338 -0.195,-0.598 v 0 c 0,-0.168 0.028,-0.315 0.084,-0.441 0.05533,-0.12599 0.140002,-0.22033 0.254005,-0.283 0.113999,-0.0633 0.237664,-0.095 0.370995,-0.095 v 0 c 0.169337,0 0.307671,0.0427 0.415001,0.128 0.107335,0.086 0.176002,0.20733 0.206001,0.364 v 0 l -0.255997,0.04 c -0.024,-0.10466 -0.067,-0.18333 -0.129005,-0.23599 -0.06267,-0.0527 -0.137667,-0.079 -0.224998,-0.079 v 0 c -0.133332,0 -0.241331,0.0477 -0.323998,0.14299 -0.08333,0.0953 -0.125,0.246 -0.125,0.45199 v 0 c 0,0.20867 0.04033,0.36034 0.120995,0.455 0.08,0.0947 0.184336,0.142 0.313003,0.142 v 0 c 0.103333,0 0.189667,-0.0317 0.259003,-0.095 0.06933,-0.0633 0.113329,-0.16101 0.131996,-0.29302 z m 1.061005,0.33402 v 0 l 0.03799,0.23298 c -0.07467,0.016 -0.140999,0.024 -0.198997,0.024 v 0 c -0.096,0 -0.170332,-0.0153 -0.223,-0.046 -0.05267,-0.03 -0.08967,-0.0697 -0.111,-0.11901 -0.022,-0.0493 -0.033,-0.15333 -0.033,-0.31199 v 0 -0.89501 h -0.193001 v -0.205 h 0.193001 v -0.38499 l 0.262993,-0.15801 v 0.543 h 0.265007 v 0.205 h -0.265007 v 0.91001 c 0,0.0753 0.0043,0.12365 0.013,0.14498 0.0093,0.0213 0.02467,0.0383 0.04601,0.051 0.02067,0.0127 0.05066,0.019 0.09,0.019 v 0 c 0.02933,0 0.068,-0.003 0.116005,-0.01 z m 0.522995,-1.608 h -0.264 v -0.30301 h 0.264 z m 0,1.84399 h -0.264 v -1.556 h 0.264 z m 0.303001,-0.778 v 0 c 0,-0.288 0.08,-0.50134 0.239998,-0.64 v 0 c 0.134003,-0.11534 0.297002,-0.173 0.488998,-0.173 v 0 c 0.214005,0 0.389005,0.07 0.525002,0.21 0.135335,0.14067 0.203003,0.33433 0.203003,0.581 v 0 c 0,0.2 -0.03,0.35767 -0.09,0.473 -0.06,0.11467 -0.147329,0.20367 -0.261994,0.267 -0.114669,0.0633 -0.240005,0.095 -0.376007,0.095 v 0 c -0.217331,0 -0.393331,-0.0697 -0.528,-0.209 -0.133997,-0.14 -0.200996,-0.34134 -0.200996,-0.604 z m 0.271004,0 v 0 c 0,0.19933 0.04333,0.34866 0.129997,0.448 0.08733,0.0987 0.196663,0.14799 0.327995,0.14799 v 0 c 0.131338,0 0.240339,-0.0497 0.327004,-0.14898 0.08666,-0.0993 0.129997,-0.25134 0.129997,-0.45601 v 0 c 0,-0.192 -0.04367,-0.33766 -0.130997,-0.437 -0.08733,-0.0993 -0.195999,-0.149 -0.326004,-0.149 v 0 c -0.131332,0 -0.240664,0.0493 -0.327995,0.14799 -0.08666,0.0987 -0.129997,0.24768 -0.129997,0.44701 z m 1.758995,0.778 h -0.264 v -1.556 h 0.237999 v 0.222 c 0.114003,-0.17134 0.279004,-0.257 0.495003,-0.257 v 0 c 0.09333,0 0.179331,0.017 0.257995,0.051 0.07867,0.0333 0.13767,0.0773 0.177002,0.13199 0.03933,0.0547 0.06667,0.11966 0.082,0.195 v 0 c 0.01,0.0487 0.015,0.134 0.015,0.256 v 0 0.957 h -0.264 v -0.946 c 0,-0.10733 -0.01033,-0.18766 -0.031,-0.241 -0.02066,-0.0533 -0.057,-0.096 -0.109001,-0.128 -0.052,-0.0313 -0.11333,-0.047 -0.183998,-0.047 v 0 c -0.112,0 -0.209,0.0357 -0.291001,0.107 -0.08133,0.0713 -0.122001,0.20633 -0.122001,0.40499 v 0 0.85001 z m 2.419998,-0.192 v 0 c -0.09733,0.0833 -0.19133,0.142 -0.281998,0.17599 -0.09,0.034 -0.187001,0.051 -0.291,0.051 v 0 c -0.170665,0 -0.301997,-0.0417 -0.393997,-0.125 -0.09133,-0.0833 -0.137001,-0.19 -0.137001,-0.32 v 0 c 0,-0.076 0.01733,-0.14567 0.052,-0.209 0.03466,-0.0627 0.07999,-0.11333 0.135994,-0.152 0.056,-0.038 0.119,-0.0667 0.189003,-0.086 v 0 c 0.052,-0.0133 0.130335,-0.0263 0.235,-0.039 v 0 c 0.212667,-0.026 0.369334,-0.0563 0.470001,-0.091 v 0 c 0.0013,-0.0367 0.002,-0.0597 0.002,-0.069 v 0 c 0,-0.10733 -0.025,-0.183 -0.075,-0.227 v 0 c -0.06734,-0.06 -0.167338,-0.09 -0.300003,-0.09 v 0 c -0.124669,0 -0.216336,0.022 -0.275001,0.066 -0.05933,0.0433 -0.102997,0.12001 -0.130997,0.23001 v 0 l -0.258003,-0.035 c 0.02334,-0.11 0.062,-0.19899 0.115997,-0.267 0.05333,-0.068 0.131002,-0.12033 0.233002,-0.157 0.101334,-0.0367 0.219002,-0.055 0.353004,-0.055 v 0 c 0.132665,0 0.240331,0.0157 0.322998,0.047 0.08333,0.0313 0.144333,0.0707 0.182999,0.11802 0.03933,0.0473 0.06667,0.10699 0.082,0.179 v 0 c 0.0093,0.0453 0.014,0.12665 0.014,0.24398 v 0 0.35102 c 0,0.24533 0.0057,0.40033 0.017,0.46499 0.01067,0.0653 0.03267,0.12766 0.066,0.187 v 0 h -0.275002 c -0.02733,-0.0547 -0.045,-0.11867 -0.053,-0.192 z m -0.022,-0.49201 v -0.097 c -0.09533,0.0393 -0.238998,0.0727 -0.430999,0.10001 v 0 c -0.108002,0.0153 -0.18467,0.033 -0.230004,0.053 -0.04467,0.0193 -0.07933,0.0477 -0.103996,0.085 -0.024,0.038 -0.036,0.08 -0.036,0.12599 v 0 c 0,0.07 0.02667,0.12834 0.08,0.17501 0.05267,0.0473 0.130335,0.071 0.233002,0.071 v 0 c 0.101999,0 0.192331,-0.0223 0.270996,-0.067 0.07934,-0.0446 0.137669,-0.10532 0.175003,-0.18199 v 0 c 0.028,-0.06 0.042,-0.148 0.042,-0.26401 v 0 z M 72.816996,134 h -0.263999 v -1.556 h 0.237998 v 0.23599 c 0.06067,-0.10999 0.116336,-0.18266 0.167,-0.21798 0.05134,-0.0353 0.108005,-0.053 0.170006,-0.053 v 0 c 0.08866,0 0.178996,0.0283 0.270996,0.085 v 0 l -0.091,0.245 c -0.06467,-0.038 -0.129333,-0.057 -0.194,-0.057 v 0 c -0.05734,0 -0.109006,0.0173 -0.155006,0.052 -0.046,0.0347 -0.07867,0.0827 -0.098,0.14402 v 0 c -0.02933,0.094 -0.044,0.19666 -0.044,0.30799 v 0 0.814 z m 0.727005,0.599 v 0 l -0.03001,-0.24699 c 0.058,0.0153 0.108337,0.023 0.151001,0.023 v 0 c 0.05867,0 0.10567,-0.01 0.140999,-0.029 0.03533,-0.02 0.064,-0.0473 0.08601,-0.082 v 0 c 0.01666,-0.0267 0.04366,-0.0923 0.08099,-0.19701 v 0 c 0.0047,-0.0147 0.01234,-0.036 0.023,-0.064 v 0 l -0.589996,-1.55901 h 0.283997 l 0.323997,0.901 c 0.042,0.11467 0.07967,0.235 0.113007,0.36099 v 0 c 0.03,-0.12132 0.066,-0.23966 0.107994,-0.35499 v 0 l 0.333,-0.907 h 0.263 l -0.591995,1.582 c -0.06333,0.17134 -0.112335,0.289 -0.147003,0.353 v 0 c -0.04733,0.0873 -0.101334,0.15133 -0.162003,0.192 -0.06,0.04 -0.131996,0.06 -0.215995,0.06 v 0 c -0.05134,0 -0.108002,-0.0107 -0.169999,-0.032 z m 1.884995,-1.854 h -0.299995 v -0.301 h 0.299995 z m 0,1.255 h -0.299995 v -0.3 h 0.299995 z m 1.227005,0 h -0.301003 l 0.823998,-2.147 h 0.306999 L 78.364001,134 h -0.323006 l -0.250999,-0.64999 h -0.897995 z m 0.553993,-1.51199 -0.235992,0.62999 h 0.727997 L 77.478,132.52299 C 77.41,132.34233 77.359329,132.194 77.325999,132.078 v 0 c -0.02733,0.138 -0.066,0.27467 -0.116005,0.41001 z M 78.818995,134 h -0.264 v -1.556 h 0.237 v 0.23599 c 0.06067,-0.10999 0.116669,-0.18266 0.167999,-0.21798 0.05134,-0.0353 0.107671,-0.053 0.169007,-0.053 v 0 c 0.08866,0 0.178995,0.0283 0.270996,0.085 v 0 l -0.091,0.245 c -0.064,-0.038 -0.128334,-0.057 -0.193001,-0.057 v 0 c -0.05733,0 -0.108999,0.0173 -0.154999,0.052 -0.046,0.0347 -0.07867,0.0827 -0.098,0.14402 v 0 c -0.02934,0.094 -0.04401,0.19666 -0.04401,0.30799 v 0 0.814 z m 1.993004,0 h -0.236 v -0.229 c -0.120666,0.176 -0.285001,0.264 -0.493004,0.264 v 0 c -0.092,0 -0.177665,-0.0177 -0.256996,-0.053 -0.08,-0.0347 -0.139335,-0.0787 -0.178001,-0.13198 -0.038,-0.0533 -0.065,-0.11867 -0.081,-0.196 v 0 c -0.01067,-0.0513 -0.016,-0.13334 -0.016,-0.24601 v 0 -0.964 h 0.264 v 0.86301 c 0,0.138 0.0053,0.23066 0.016,0.278 v 0 c 0.01667,0.0693 0.05167,0.12398 0.105004,0.16398 0.054,0.0393 0.120333,0.059 0.198997,0.059 v 0 c 0.07934,0 0.153669,-0.0203 0.223,-0.061 0.06934,-0.04 0.118337,-0.095 0.147003,-0.16499 0.02933,-0.07 0.044,-0.17133 0.044,-0.304 v 0 -0.834 h 0.263 v 1.556 z m 1.978996,-0.75301 v 0 l 0.284005,0.072 c -0.05934,0.23334 -0.166336,0.41134 -0.320999,0.534 -0.154669,0.12267 -0.344002,0.184 -0.568001,0.184 v 0 c -0.231334,0 -0.419335,-0.0473 -0.564003,-0.142 -0.145335,-0.094 -0.256002,-0.23034 -0.332001,-0.40901 -0.07533,-0.17866 -0.112999,-0.37065 -0.112999,-0.57599 v 0 c 0,-0.22333 0.04267,-0.41834 0.127998,-0.585 0.08534,-0.16667 0.207006,-0.293 0.365006,-0.379 0.157333,-0.0867 0.330999,-0.13001 0.520996,-0.13001 v 0 c 0.214666,0 0.395332,0.0547 0.542,0.16401 0.146001,0.10933 0.248001,0.263 0.306,0.46099 v 0 l -0.279999,0.066 c -0.05,-0.156 -0.122332,-0.26967 -0.217003,-0.341 -0.09467,-0.0713 -0.213664,-0.10699 -0.356995,-0.10699 v 0 c -0.165334,0 -0.303334,0.0397 -0.414001,0.11898 -0.110667,0.0787 -0.188667,0.18468 -0.234001,0.31801 -0.04467,0.13333 -0.067,0.271 -0.067,0.413 v 0 c 0,0.18266 0.02667,0.342 0.08,0.47799 0.05334,0.13601 0.136002,0.23768 0.248001,0.30501 0.112666,0.0673 0.234332,0.101 0.364998,0.101 v 0 c 0.159332,0 0.293999,-0.0457 0.403999,-0.13699 0.110667,-0.092 0.185334,-0.22834 0.223999,-0.40902 z m 0.503006,-0.025 v 0 c 0,-0.288 0.08,-0.50134 0.239998,-0.64 v 0 c 0.133998,-0.11534 0.296997,-0.173 0.488999,-0.173 v 0 c 0.213999,0 0.389,0.07 0.525001,0.21 0.13533,0.14067 0.202996,0.33433 0.202996,0.581 v 0 c 0,0.2 -0.03,0.35767 -0.09,0.473 -0.06,0.11467 -0.147336,0.20367 -0.262001,0.267 -0.114665,0.0633 -0.239998,0.095 -0.375999,0.095 v 0 c -0.218003,0 -0.394003,-0.0697 -0.528,-0.209 -0.133998,-0.14 -0.200997,-0.34134 -0.200997,-0.604 z m 0.270997,0 v 0 c 0,0.19933 0.04333,0.34866 0.129997,0.448 0.08667,0.0987 0.196004,0.14799 0.328003,0.14799 v 0 c 0.130666,0 0.239667,-0.0497 0.327003,-0.14898 0.08666,-0.0993 0.129997,-0.25134 0.129997,-0.45601 v 0 c 0,-0.192 -0.04367,-0.33766 -0.130996,-0.437 -0.08734,-0.0993 -0.196004,-0.149 -0.326004,-0.149 v 0 c -0.131999,0 -0.241333,0.0493 -0.328003,0.14799 -0.08666,0.0987 -0.129997,0.24768 -0.129997,0.44701 z m 3.137001,0.778 h -0.775002 v -2.147 h 0.739998 c 0.167333,0 0.295001,0.01 0.383003,0.03 v 0 c 0.122666,0.0287 0.227333,0.08 0.314003,0.154 v 0 c 0.113332,0.096 0.198331,0.21834 0.254997,0.36701 0.056,0.14866 0.084,0.31899 0.084,0.51098 v 0 c 0,0.16267 -0.019,0.30701 -0.057,0.43302 -0.038,0.12599 -0.087,0.23032 -0.147003,0.31299 -0.05933,0.0827 -0.124331,0.14767 -0.195,0.195 -0.07133,0.0473 -0.156995,0.083 -0.256996,0.107 -0.1,0.0247 -0.215001,0.037 -0.345,0.037 z m -0.489998,-1.894 v 1.64099 h 0.458 c 0.141998,0 0.252998,-0.0133 0.333,-0.04 0.08066,-0.0267 0.144994,-0.0637 0.192993,-0.11101 v 0 c 0.06734,-0.0673 0.119672,-0.15799 0.157006,-0.27198 0.038,-0.11401 0.057,-0.25201 0.057,-0.41401 v 0 c 0,-0.22467 -0.037,-0.39734 -0.111,-0.518 -0.07333,-0.12067 -0.163,-0.20134 -0.268997,-0.24201 v 0 c -0.076,-0.0293 -0.198339,-0.044 -0.367005,-0.044 v 0 H 86.212002 Z M 88.425998,134 h -0.283997 v -2.147 h 0.283997 z m 2.033996,-0.75301 v 0 l 0.284004,0.072 c -0.05933,0.23334 -0.166664,0.41134 -0.321998,0.534 -0.154668,0.12267 -0.343669,0.184 -0.567002,0.184 v 0 c -0.231333,0 -0.419667,-0.0473 -0.565002,-0.142 -0.14533,-0.094 -0.255664,-0.23034 -0.331001,-0.40901 -0.076,-0.17866 -0.113999,-0.37065 -0.113999,-0.57599 v 0 c 0,-0.22333 0.043,-0.41834 0.129006,-0.585 0.08533,-0.16667 0.206665,-0.293 0.363998,-0.379 0.158,-0.0867 0.331665,-0.13001 0.520996,-0.13001 v 0 c 0.214666,0 0.395333,0.0547 0.542,0.16401 0.146668,0.10933 0.248668,0.263 0.306,0.46099 v 0 l -0.279999,0.066 c -0.04933,-0.156 -0.12133,-0.26967 -0.215996,-0.341 -0.09467,-0.0713 -0.214004,-0.10699 -0.358001,-0.10699 v 0 c -0.164668,0 -0.302669,0.0397 -0.414002,0.11898 -0.110667,0.0787 -0.188334,0.18468 -0.233002,0.31801 -0.04533,0.13333 -0.068,0.271 -0.068,0.413 v 0 c 0,0.18266 0.02667,0.342 0.08,0.47799 0.05334,0.13601 0.136335,0.23768 0.249001,0.30501 0.112,0.0673 0.233332,0.101 0.363998,0.101 v 0 c 0.159333,0 0.294332,-0.0457 0.404999,-0.13699 0.110001,-0.092 0.184667,-0.22834 0.223999,-0.40902 z M 91.924998,134 h -0.285003 v -1.894 h -0.706994 v -0.253 h 1.701991 v 0.253 h -0.709994 z m 2.472004,0.59599 h -1.74701 v -0.18998 h 1.74701 z m 1.2,-0.59599 h -0.264 v -0.51401 h -0.931 V 133.244 l 0.98,-1.391 h 0.215 v 1.391 h 0.29 v 0.24199 h -0.29 z m -0.936,-0.756 h 0.672 v -0.968 z m 1.725,0.756 h -0.341 l 0.831,-1.119 -0.733,-1.028 h 0.339 l 0.389,0.55 c 0.0813,0.11466 0.139,0.20267 0.173,0.26401 v 0 c 0.048,-0.078 0.10467,-0.15968 0.17,-0.24501 v 0 l 0.432,-0.569 h 0.309 l -0.754,1.01201 0.813,1.13499 h -0.352 l -0.54,-0.76601 c -0.0307,-0.044 -0.062,-0.092 -0.094,-0.14399 v 0 c -0.048,0.0787 -0.0823,0.13233 -0.103,0.16101 v 0 z m 2.880002,0 h -0.263 v -0.51401 H 98.071002 V 133.244 l 0.980002,-1.391 h 0.215 v 1.391 h 0.29 v 0.24199 h -0.29 z m -0.936002,-0.756 h 0.673002 v -0.968 z M 100.274,134 h -0.299996 v -0.3 H 100.274 Z"
                 style="fill:#000000;fill-opacity:1;fill-rule:nonzero;stroke:none"
                 id="path814"
                 inkscape:connector-curvature="0" /></g></g></g></g></g></g></svg>